<svg xmlns="http://www.w3.org/2000/svg" viewBox="0 0 227.04 50.77"><defs><style>.cls-1{fill:#5d3c2d;}</style></defs><g id="Capa_2" data-name="Capa 2"><g id="Capa_1-2" data-name="Capa 1"><path class="cls-1" d="M11.68,1.06A36.31,36.31,0,0,1,28.62,16.94c.68,1.31,10.2,20.36,0,29.64-6.06,5.51-17,5.67-26.46,0A48.63,48.63,0,0,1,2.16,18,47.58,47.58,0,0,1,11.68,1.06Z"/><path class="cls-1" d="M215.35,0a36.35,36.35,0,0,0-16.93,15.88c-.68,1.31-10.21,20.36,0,29.64,6.06,5.51,17,5.67,26.46,0a48.63,48.63,0,0,0,0-28.58A47.57,47.57,0,0,0,215.35,0Z"/></g></g></svg>