<svg xmlns="http://www.w3.org/2000/svg" viewBox="0 0 228 143.69"><defs><style>.cls-1{fill:#5d3c2d;}</style></defs><g id="Capa_2" data-name="Capa 2"><g id="Capa_1-2" data-name="Capa 1"><path class="cls-1" d="M0,142.62q.54-36.41,1.07-72.79C1.79,65.67,4.94,50.3,18.2,42c9-5.63,18.53-5.46,24.62-5.36,16.33.29,19.06,7.73,32.11,6.43,9.27-.93,15.89-5.38,23-10.17,13.36-9,14.14-15.38,23.55-22.48C137.27-1.49,157-.14,162.7.25c21.4,1.46,42.3,13,53.53,31a65.75,65.75,0,0,1,9.63,31Q226.93,103,228,143.69c-9.88-2.39-14.34-6.71-16.59-10.17-6.21-9.57.9-18.12-5.35-34.26a42.74,42.74,0,0,0-9.64-15,40.89,40.89,0,0,0-16-9.64H50.85c-5.19,1.4-15.68,5.11-22.48,15-4.5,6.52-5.77,13.39-6.43,17.13-2.21,12.65,1.88,17-1.07,23.55C18.94,134.59,14,139.81,0,142.62Z"/></g></g></svg>