<svg xmlns="http://www.w3.org/2000/svg" viewBox="0 0 47.89 77"><defs><style>.cls-1{fill:#5d3c2d;}</style></defs><g id="Capa_2" data-name="Capa 2"><g id="Capa_1-2" data-name="Capa 1"><path class="cls-1" d="M14.31,75.2A34,34,0,0,1,8,57.32a42.71,42.71,0,0,1,1.1-11.08A21.19,21.19,0,0,0,20.2,55.77c7.88,2.78,19.22,1,24.71-7.63,4.66-7.35,3.76-17.66-2-23.47-8.64-8.64-22.54-2.76-26.6-.75A24.8,24.8,0,0,0,12.74,26a26.61,26.61,0,0,1,.67-4c1.93-7.64,7.38-12.51,10.47-14.74A4,4,0,1,0,19.19.76C15.23,3.62,8.2,9.93,5.66,20a36.89,36.89,0,0,0-.58,14.6C-.19,43.86-.09,54.8,0,57.68A41.35,41.35,0,0,0,6,77h9A4,4,0,0,0,14.31,75.2Zm5.5-44.11c2-1,12.4-5.76,17.4-.76,3.15,3.16,3.59,9.35.94,13.53C34.71,49.3,27,49.69,22.86,48.23c-4.62-1.63-7.77-6.38-9.25-12A17.45,17.45,0,0,1,19.81,31.09Z"/></g></g></svg>