<svg xmlns="http://www.w3.org/2000/svg" viewBox="0 0 215.56 92.27"><defs><style>.cls-1{fill:#342a28;opacity:0.6;}.cls-2{opacity:0.2;}.cls-3{fill:#fffaef;}.cls-4{fill:#ad3b66;}</style></defs><g id="Capa_2" data-name="Capa 2"><g id="Capa_1-2" data-name="Capa 1"><path class="cls-1" d="M163.45,2.27c-1.19,0-2.36.06-3.52.15,0,0,0-.1,0-.15H55.32s0,.1,0,.15c-1.16-.09-2.33-.15-3.52-.15A43.87,43.87,0,1,0,95.39,51.11h0c2.72-16.51,12.24-14.82,12.24-14.82s9.52-1.69,12.24,14.82h0A43.87,43.87,0,1,0,163.45,2.27Z"/><g class="cls-2"><path class="cls-3" d="M51.81,90a45.08,45.08,0,0,0,6-.4c7.68-38.2,31.84-69,49.74-87.33H76.11c-30,25-48.15,59.36-55.32,74.89A43.73,43.73,0,0,0,51.81,90Z"/><path class="cls-3" d="M125.92,2.27h-8.24C98.63,16.4,75.81,42.19,66.17,87.59a43.81,43.81,0,0,0,8-3.72C79,64.11,92.48,23.39,125.92,2.27Z"/><path class="cls-3" d="M138.44,82.17c8.39-32,27.85-58.26,43.94-75.62a43.77,43.77,0,0,0-18.93-4.28c-1.19,0-2.36.06-3.52.15,0,0,0-.1,0-.15h-4.88c-15.42,12.83-27.71,28.16-37,42.14a31.43,31.43,0,0,1,1.8,6.7h0A43.89,43.89,0,0,0,138.44,82.17Z"/><path class="cls-3" d="M191.62,12.51a44.89,44.89,0,0,0-3.92-2.93c-16.58,15-34,38.91-42.28,76.55a44.37,44.37,0,0,0,6.64,2.37C155.22,73.59,165.29,37,191.62,12.51Z"/></g><path class="cls-4" d="M163.45,92.27a46.07,46.07,0,0,1-45.81-40.72v-.07c-2-12-7.59-13-9.26-13a3,3,0,0,0-.38,0l-.44.08-.31-.08a3.4,3.4,0,0,0-.35,0c-1.67,0-7.28.94-9.26,13v.08A46.14,46.14,0,1,1,51.81,0H163.45a46.14,46.14,0,1,1,0,92.27Zm-41.7-43.43h.15l.23,2A41.59,41.59,0,1,0,163.45,4.54H51.81A41.6,41.6,0,1,0,93.13,50.86l.23-2h.15C96.43,35.08,104.42,34,106.89,34a7,7,0,0,1,.74,0,7,7,0,0,1,.74,0C110.84,34,118.83,35.08,121.75,48.84Z"/><rect class="cls-4" y="27.3" width="11.18" height="4.54"/><rect class="cls-4" x="204.38" y="27.3" width="11.18" height="4.54"/></g></g></svg>