<svg xmlns="http://www.w3.org/2000/svg" viewBox="0 0 207.26 100.39"><defs><style>.cls-1{fill:#ad3b66;}.cls-2{fill:#2d1d26;opacity:0.6;}</style></defs><g id="Capa_2" data-name="Capa 2"><g id="Capa_1-2" data-name="Capa 1"><path class="cls-1" d="M109.73,40.32s-6.55-9.41-12.92,0L91.26,25h23Z"/><path class="cls-1" d="M11.11,32.14,0,21.79V9.23S31.07.47,57.85,3.84C57.85,3.84,23.38,7.1,11.11,32.14Z"/><circle class="cls-2" cx="53.56" cy="52.01" r="46.86" transform="translate(1.34 105.36) rotate(-89.77)"/><path class="cls-1" d="M53.56,100.39a49.7,49.7,0,1,1,49.7-49.69A49.75,49.75,0,0,1,53.56,100.39Zm0-93.72a44,44,0,1,0,44,44A44.08,44.08,0,0,0,53.56,6.67Z"/><path class="cls-1" d="M196.15,31.14l11.11-10.35V8.23S176.19-.53,149.41,2.84C149.41,2.84,183.88,6.1,196.15,31.14Z"/><circle class="cls-2" cx="153.7" cy="51.01" r="46.86" transform="translate(-0.21 0.65) rotate(-0.24)"/><path class="cls-1" d="M153.7,99.39A49.7,49.7,0,1,1,203.39,49.7,49.75,49.75,0,0,1,153.7,99.39Zm0-93.72a44,44,0,1,0,44,44A44.08,44.08,0,0,0,153.7,5.67Z"/></g></g></svg>