<svg xmlns="http://www.w3.org/2000/svg" viewBox="0 0 224.3 99.84"><defs><style>.cls-1{fill:#ee4623;}.cls-2{fill:#342a28;opacity:0.6;}</style></defs><g id="Capa_2" data-name="Capa 2"><g id="Capa_1-2" data-name="Capa 1"><path class="cls-1" d="M209.76,33.8l11.69,1.14L220.17,48l-12.41,6.31S211.67,42.45,209.76,33.8Z"/><path class="cls-1" d="M207.48,57.22a2.71,2.71,0,0,1-1.59-.7,3,3,0,0,1-.83-3.12h0c0-.11,3.63-11.22,1.92-18.95a3,3,0,0,1,.65-2.58,2.85,2.85,0,0,1,2.41-1L221.73,32a2.88,2.88,0,0,1,2.55,3.18L223,48.29a2.93,2.93,0,0,1-1.58,2.33L209,56.93A2.78,2.78,0,0,1,207.48,57.22Zm5.59-20.17a47.94,47.94,0,0,1-1,11.82l5.42-2.75.83-8.55Z"/><path class="cls-1" d="M156.15,97.86a4.16,4.16,0,0,1-1.82-.62c-44.37-27.82-43.75-58-43.48-61.75a38.37,38.37,0,0,1,.18-4.8C112.82,12.34,126.7-1.38,142,.11c10.69,1,18.46,5.86,22.39,13.37,5.3-6.61,13.85-9.84,24.54-8.8,15.28,1.49,26.26,17.62,24.47,36a40.08,40.08,0,0,1-.74,4.75c-.47,3.75-5.68,33.46-54.58,52.2A4.19,4.19,0,0,1,156.15,97.86ZM119.37,36c0,.25-.5,7.07,3.93,16.87,4.07,9,13.23,22.46,33.75,35.74,22.71-9.08,34.29-20.5,40-28.58,6.31-8.88,7.08-15.72,7.09-15.79a3.63,3.63,0,0,1,.09-.56,29.73,29.73,0,0,0,.62-3.89c1.32-13.54-6.22-25.4-16.82-26.43-8.76-.85-19.52,1.28-21,16.25a4.27,4.27,0,1,1-8.5-.82c1.46-15-8.68-19.14-17.44-20-10.6-1-20.29,9.15-21.61,22.69a30.52,30.52,0,0,0-.13,3.94A5.49,5.49,0,0,1,119.37,36Z"/><path class="cls-2" d="M208.42,44.68a35.43,35.43,0,0,0,.71-4.44c1.56-16-7.69-29.94-20.64-31.2s-24.1,4.22-25.66,20.19c1.56-16-8.31-23.5-21.27-24.76S116.83,15.13,115.28,31.1a35.9,35.9,0,0,0-.16,4.5h0s-3.19,29.91,41.46,57.9c49.2-18.85,51.84-48.82,51.84-48.82Z"/><path class="cls-1" d="M14.63,35.79,2.87,36.93,4.14,50l12.49,6.3S12.71,44.44,14.63,35.79Z"/><path class="cls-1" d="M16.91,59.21a2.79,2.79,0,0,0,1.61-.7,3,3,0,0,0,.83-3.12h0c0-.11-3.64-11.22-1.92-19a3,3,0,0,0-.65-2.58,2.9,2.9,0,0,0-2.43-1L2.58,34A2.9,2.9,0,0,0,0,37.21L1.29,50.29a2.89,2.89,0,0,0,1.58,2.33l12.49,6.3A2.82,2.82,0,0,0,16.91,59.21ZM11.3,39.05a47,47,0,0,0,1,11.82L6.84,48.12,6,39.56Z"/><path class="cls-1" d="M68.55,99.82a4.24,4.24,0,0,0,1.83-.62c44.68-27.85,44.07-58,43.8-61.78a38.37,38.37,0,0,0-.18-4.8C112.22,14.27,98.25.56,82.87,2.06c-10.76,1-18.59,5.87-22.54,13.38C55,8.83,46.4,5.61,35.63,6.66,20.25,8.15,9.19,24.3,11,42.65a40.11,40.11,0,0,0,.75,4.75c.47,3.74,5.69,33.46,54.9,52.17A4.34,4.34,0,0,0,68.55,99.82ZM105.6,38c0,.26.5,7.07-4,16.88-4.1,9-13.33,22.46-34,35.76C44.8,81.54,33.15,70.12,27.38,62.05,21,53.17,20.26,46.33,20.25,46.26a2.72,2.72,0,0,0-.09-.56,29.73,29.73,0,0,1-.62-3.89c-1.32-13.54,6.28-25.4,16.94-26.44,8.82-.86,19.65,1.26,21.11,16.24a4.3,4.3,0,1,0,8.55-.84c-1.46-15,8.75-19.14,17.58-20,10.66-1,20.41,9.14,21.73,22.68a32.36,32.36,0,0,1,.13,3.94A5.43,5.43,0,0,0,105.6,38Z"/><path class="cls-2" d="M16,46.67a35.43,35.43,0,0,1-.71-4.44C13.7,26.26,23,12.28,36.06,11s24.25,4.21,25.8,20.18c-1.55-16,8.39-23.51,21.43-24.78S108.17,17.06,109.73,33a37.87,37.87,0,0,1,.15,4.5h0s3.2,29.91-41.76,57.94C18.61,76.64,16,46.67,16,46.67Z"/></g></g></svg>