<svg xmlns="http://www.w3.org/2000/svg" viewBox="0 0 228.01 100.53"><defs><style>.cls-1{fill:#ef9e20;}.cls-2{fill:#81467d;opacity:0.6;}</style></defs><g id="Capa_2" data-name="Capa 2"><g id="Capa_1-2" data-name="Capa 1"><path class="cls-1" d="M18.32,29a3.45,3.45,0,0,1-3.45,3.45H3.46A3.45,3.45,0,0,1,0,29H0a3.46,3.46,0,0,1,3.46-3.46H14.87A3.46,3.46,0,0,1,18.32,29Z"/><path class="cls-2" d="M112.83,37.57c0,25.92-29.74,68.15-69.13,59C19.86,91,12.38,55.94,12.38,30S38.87,2.7,63.28,2.7,112.83,7.48,112.83,37.57Z"/><path class="cls-1" d="M54.67,100.53a50.91,50.91,0,0,1-11.58-1.35C31.54,96.49,22.37,87.05,16.58,71.89c-6-15.72-6.9-33-6.9-41.87,0-12.74,6.07-21.46,18.06-25.91C38,.32,51.44,0,63.28,0c22.43,0,52.25,3.89,52.25,37.57,0,12.72-6.53,28.3-17,40.67C86.27,92.62,70.71,100.53,54.67,100.53ZM63.28,5.4c-25.4,0-48.2,1.89-48.2,24.62,0,26.34,7.66,58.87,29.24,63.9a45.83,45.83,0,0,0,10.35,1.21c31.64,0,55.45-34.92,55.45-57.56S96.12,5.4,63.28,5.4Z"/><path class="cls-1" d="M228,29a3.45,3.45,0,0,1-3.46,3.45H213.14A3.44,3.44,0,0,1,209.69,29h0a3.45,3.45,0,0,1,3.45-3.46h11.41A3.46,3.46,0,0,1,228,29Z"/><path class="cls-2" d="M115.7,37.57c0,25.92,29.73,68.15,69.12,59C208.66,91,216.15,55.94,216.15,30S189.65,2.7,165.24,2.7,115.7,7.48,115.7,37.57Z"/><path class="cls-1" d="M173.86,100.53h0c-16,0-31.6-7.92-43.82-22.29-10.51-12.37-17-27.95-17-40.67C113,3.89,142.81,0,165.24,0c11.84,0,25.33.32,35.55,4.11,12,4.45,18.06,13.17,18.06,25.91,0,8.89-.9,26.15-6.9,41.87-5.8,15.16-15,24.6-26.52,27.29A50.83,50.83,0,0,1,173.86,100.53ZM165.24,5.4C132.41,5.4,118.4,15,118.4,37.57s23.81,57.55,55.46,57.56h0a45.9,45.9,0,0,0,10.35-1.21c21.58-5,29.23-37.56,29.23-63.9C213.44,7.29,190.64,5.4,165.24,5.4Z"/><rect class="cls-1" x="73.53" y="0.22" width="97.4" height="5.4"/></g></g></svg>