<svg xmlns="http://www.w3.org/2000/svg" viewBox="0 0 315 167.45"><defs><style>.cls-1{fill:#a85218;}.cls-2{fill:#723308;}.cls-3{fill:#c96624;}.cls-4{fill:#fb0709;}.cls-5{fill:#c10900;}.cls-6{fill:#ff9c00;}.cls-7{fill:#ea6f00;}.cls-8{fill:#ffb400;}</style></defs><g id="Capa_2" data-name="Capa 2"><g id="Capa_1-2" data-name="Capa 1"><path class="cls-1" d="M265,69C237.65,82.53,182.29,88.2,157.5,90.14,132.71,88.2,77.35,82.53,50,69,14,51.33-4.37,74.7.88,97.36s51.71,70.09,151.62,70.09h10c99.9,0,146.35-47.44,151.61-70.09S301,51.33,265,69Z"/><path class="cls-2" d="M152.5,159.56c-98.49,0-140-46.9-143.93-64C7,88.69,8.24,81.78,12,77.08c3.32-4.17,8.41-6.39,14.71-6.39,5.84,0,12.5,1.83,19.8,5.42C74.32,89.82,127.6,95.72,156.89,98l.61,0,.62,0c29.28-2.28,82.56-8.18,110.4-21.89,7.3-3.59,14-5.42,19.8-5.42,6.3,0,11.39,2.22,14.71,6.39,3.72,4.7,5,11.61,3.4,18.49-4,17.09-45.44,64-143.92,64Z"/><path class="cls-3" d="M162.51,167.45c99.9,0,146.35-47.44,151.61-70.09a31.65,31.65,0,0,0-.93-18c-8.4,23.58-55,67.06-150.68,67.06h-10c-95.67,0-142.29-43.48-150.69-67.06a31.65,31.65,0,0,0-.93,18C6.14,120,52.59,167.45,152.5,167.45Z"/><path class="cls-3" d="M227.81,28.31S224.32-1.78,203.56.08C190,1.3,178.53,20.24,157.5,20.24S125.05,1.3,111.44.08C90.68-1.78,87.19,28.31,87.19,28.31L73.93,116.65H241.07Z"/><path class="cls-1" d="M157.5,116.65h83.57L227.81,28.31a52,52,0,0,0-5.47-17,26.37,26.37,0,0,0-8.72-.74C197,11.82,183.13,38.64,157.5,38.64s-39.54-26.82-56.11-28a26.43,26.43,0,0,0-8.73.74,52,52,0,0,0-5.47,17L73.93,116.65Z"/><polygon class="cls-4" points="72.13 110.94 242.87 110.94 237.77 76.99 77.23 76.99 72.13 110.94"/><polygon class="cls-4" points="238.43 81.36 237.77 76.99 77.23 76.99 76.57 81.36 238.43 81.36"/><polygon class="cls-5" points="72.13 110.94 242.87 110.94 242.18 106.37 72.81 106.37 72.13 110.94"/><path class="cls-6" d="M173.78,94c0,6-7.28,10.87-16.28,10.87S141.22,100,141.22,94,148.5,83.1,157.5,83.1,173.78,88,173.78,94Z"/><path class="cls-7" d="M157.5,101.83c-7.2,0-13.28-3.6-13.28-7.87s6.08-7.86,13.28-7.86,13.28,3.6,13.28,7.86S164.7,101.83,157.5,101.83Z"/><path class="cls-6" d="M191.53,94a5.11,5.11,0,1,1-5.11-5.11A5.11,5.11,0,0,1,191.53,94Z"/><path class="cls-8" d="M188.94,94a2.53,2.53,0,1,1-2.52-2.52A2.53,2.53,0,0,1,188.94,94Z"/><path class="cls-6" d="M212.56,94a5.11,5.11,0,1,1-5.11-5.11A5.11,5.11,0,0,1,212.56,94Z"/><path class="cls-8" d="M210,94a2.53,2.53,0,1,1-2.53-2.52A2.53,2.53,0,0,1,210,94Z"/><path class="cls-6" d="M233.6,94a5.11,5.11,0,1,1-5.11-5.11A5.11,5.11,0,0,1,233.6,94Z"/><path class="cls-8" d="M231,94a2.52,2.52,0,1,1-2.52-2.52A2.53,2.53,0,0,1,231,94Z"/><path class="cls-6" d="M91.62,94a5.11,5.11,0,1,1-5.1-5.11A5.11,5.11,0,0,1,91.62,94Z"/><path class="cls-8" d="M89,94a2.53,2.53,0,1,1-2.52-2.52A2.53,2.53,0,0,1,89,94Z"/><path class="cls-6" d="M112.66,94a5.11,5.11,0,1,1-5.11-5.11A5.11,5.11,0,0,1,112.66,94Z"/><path class="cls-8" d="M110.07,94a2.53,2.53,0,1,1-2.52-2.52A2.53,2.53,0,0,1,110.07,94Z"/><path class="cls-6" d="M133.69,94a5.11,5.11,0,1,1-5.11-5.11A5.11,5.11,0,0,1,133.69,94Z"/><path class="cls-8" d="M131.11,94a2.53,2.53,0,1,1-2.53-2.52A2.54,2.54,0,0,1,131.11,94Z"/></g></g></svg>