<svg xmlns="http://www.w3.org/2000/svg" viewBox="0 0 244.6 258.59"><defs><style>.cls-1{fill:#282828;}.cls-2{fill:#444;}.cls-3{fill:#c10900;}.cls-4{fill:#fb0709;}.cls-5{fill:#f46256;}</style></defs><g id="Capa_2" data-name="Capa 2"><g id="Capa_1-2" data-name="Capa 1"><path class="cls-1" d="M205.8,164c-21.25,13-64.25,18.42-83.5,20.28C103.05,182.42,60.07,177,38.8,164,10.9,147-3.4,169.44.69,191.22s40.15,67.37,117.73,67.37h7.76c77.58,0,113.65-45.6,117.73-67.37S233.7,147,205.8,164Z"/><path d="M118.42,250.43c-75,0-106.67-44.5-109.71-60.71-1.41-7.56,0-15.28,3.68-19.68a10.22,10.22,0,0,1,8.34-3.86c3.89,0,8.67,1.66,13.82,4.79,22.09,13.47,64,19.22,87,21.44l.79.07.79-.07c23-2.22,64.88-8,87-21.44,5.14-3.13,9.92-4.79,13.81-4.79a10.22,10.22,0,0,1,8.34,3.86c3.65,4.4,5.09,12.12,3.67,19.68-3,16.21-34.68,60.71-109.7,60.71Z"/><path class="cls-2" d="M243.91,191.22a36.68,36.68,0,0,0-1.07-18.38c-7.4,22.9-43.64,63.29-116.66,63.29h-7.76c-73,0-109.26-40.39-116.67-63.29A36.91,36.91,0,0,0,.69,191.22C4.77,213,40.84,258.59,118.42,258.59h7.76C203.76,258.59,239.83,213,243.91,191.22Z"/><path d="M191.71,207.55l12-189.18a10.44,10.44,0,0,0-5.56-8.69S165.17,0,122.3,0,46.42,9.68,46.42,9.68a10.44,10.44,0,0,0-5.56,8.69l12,189.18Z"/><polygon class="cls-1" points="162.3 202.11 102.42 202.11 94.39 7.49 170.32 7.49 162.3 202.11"/><polygon class="cls-2" points="145.29 202.11 109.11 202.11 105.09 7.49 149.3 7.49 145.29 202.11"/><path class="cls-2" d="M198.18,9.68S165.17,0,122.3,0,46.42,9.68,46.42,9.68a9.17,9.17,0,0,0-2.82,2.17c20.26,2,54.88,3.12,78.7,3.12s58.45-1.12,78.69-3.12A9,9,0,0,0,198.18,9.68Z"/><path class="cls-3" d="M199,207.55V166.72a6.28,6.28,0,0,0-6.4-6.12H52a6.27,6.27,0,0,0-6.4,6.12v40.83Z"/><rect class="cls-4" x="101.53" y="160.6" width="62.54" height="46.95"/><rect class="cls-5" x="108.51" y="160.6" width="37.79" height="46.95"/><path class="cls-5" d="M192.57,160.6H52a6.27,6.27,0,0,0-6.4,6.12v1.72H199v-1.72A6.28,6.28,0,0,0,192.57,160.6Z"/></g></g></svg>