<svg xmlns="http://www.w3.org/2000/svg" viewBox="0 0 273.72 251.31"><defs><style>.cls-1{fill:#051d65;}.cls-2{fill:#020100;}.cls-3{fill:#152c7c;}.cls-4{fill:#ff9c00;}.cls-5{fill:#ffb400;}</style></defs><g id="Capa_2" data-name="Capa 2"><g id="Capa_1-2" data-name="Capa 1"><path class="cls-1" d="M87.89,179.26A14.71,14.71,0,0,1,73.7,162.15L88.12,76.78c1.31-9,8.9-20.05,16.87-24.49l89.22-49.7c8-4.42,20-3,26.78,3.08L246.7,29c6.76,6.13,10.82,18.48,9.05,27.42L254.44,63c-1.78,8.95.14,19.95,4.28,24.43s.76,7.7-7.52,7.13S233.84,86.46,231,77.79l-4.15-12.56c-2.85-8.66-11.69-12.09-19.63-7.6l-24,13.5C175.28,75.62,171.15,86.37,174,95l25.77,68.84c2.89,8.66-2.2,15.42-11.31,15Z"/><path class="cls-2" d="M238.94,81.8c-4.57-6.6-6.6-24.28-6.6-24.28-2.59-7.87-7-9.7-14-10.07-2.49-3.43-4.93-8.2-5.33-13a17.78,17.78,0,0,0-1.95,13.21,23.52,23.52,0,0,0-7.92,2.75l-24,13.52a36,36,0,0,0-11.75,11.34,29.33,29.33,0,0,1-14.59-8.67c-1,8.21,4.8,13.74,10.56,16.33-.35.87-.66,1.75-.92,2.63-5.12.57-13.56,1-20.29-1,5.64,8.6,12.7,12.23,19.32,13.22a18.52,18.52,0,0,0,.6,2.33l12.91,46,9.64,32.84h3.86c9.11.37,14.2-6.39,11.31-15L174,95c-2.89-8.65,1.24-19.4,9.19-23.89l24-13.5c7.94-4.49,16.78-1.06,19.63,7.6L231,77.79c2.72,8.25,11.11,15.49,19,16.65A86.19,86.19,0,0,1,238.94,81.8Z"/><path class="cls-3" d="M246.7,29,221,5.67c-6.76-6.12-18.82-7.5-26.78-3.08L105,52.29A28.68,28.68,0,0,0,99,57c4-.93,8.18-2,12.67-3.15C126.94,50,198.25,9.85,198.25,9.85A14.12,14.12,0,0,1,205,8.29c4,0,8,1.35,10.4,3.53,0,0,18,9.49,30.1,22.62,3.07,3.38,7,11.35,10.57,19.41C256.73,45.23,252.82,34.57,246.7,29Z"/><polygon class="cls-2" points="59.97 198.75 119.24 198.75 213.75 198.75 201.47 155.63 72.24 155.63 59.97 198.75"/><polygon class="cls-3" points="202.98 160.94 201.47 155.63 72.24 155.63 70.74 160.94 202.98 160.94"/><path class="cls-4" d="M155.87,152.47h-38a6.23,6.23,0,0,0-6.22,6.22v38a6.24,6.24,0,0,0,6.22,6.22h38a6.24,6.24,0,0,0,6.22-6.22v-38A6.23,6.23,0,0,0,155.87,152.47Zm-2.08,42.17H119.92V160.76h33.87Z"/><path class="cls-5" d="M117.44,197.11h38.83V158.29H117.44Zm2.48-36.35h33.87v33.88H119.92Z"/><path class="cls-1" d="M136.86,183.06h0C61.27,183.06,0,215.54,0,238c0,28,61.27,3.11,136.86,3.11h0c75.58,0,136.86,24.89,136.86-3.11C273.72,215.54,212.44,183.06,136.86,183.06Z"/><path class="cls-2" d="M136.86,194.64h0c-70.73,0-128.07,16.7-128.07,34,0,21.54,57.34,2.39,128.07,2.39h0c70.73,0,128.07,19.15,128.07-2.39C264.93,211.34,207.59,194.64,136.86,194.64Z"/><path class="cls-3" d="M136.86,183.06h0C61.27,183.06,0,215.54,0,238c0,.48.06.91.09,1.36,22.1-20.28,75-40.38,136.77-40.38h0c61.77,0,114.67,20.1,136.76,40.38,0-.45.1-.88.1-1.36C273.72,215.54,212.44,183.06,136.86,183.06Z"/></g></g></svg>