<svg xmlns="http://www.w3.org/2000/svg" viewBox="0 0 328.39 232.23"><defs><style>.cls-1{fill:#fb0709;}.cls-2{fill:#c10900;}.cls-3{fill:#e0e0e0;}.cls-4{fill:#cecece;}.cls-5{fill:#bfbfbf;}.cls-6{fill:#f46256;}.cls-7{fill:#1c8d1b;}.cls-8{fill:#6fb423;}</style></defs><g id="Capa_2" data-name="Capa 2"><g id="Capa_1-2" data-name="Capa 1"><path class="cls-1" d="M50.57,134.44c13-4.66,20.73-7.25,45.08-34.71s30.73-64.89,63.8-84.66c55-32.85,120-8.33,136.11,38.22,2.85,8.21.17,24.31-1.51,27.32,16.43,3.52,17.43,18.11,11.4,24.14,10.68,6.07,10.93,27,10.93,40.06v22.36a35.33,35.33,0,0,1-35.23,35.23H155.77a35.33,35.33,0,0,1-35.23-35.23V144.81a34.86,34.86,0,0,1,1.24-9.24c-35.26,20.19-82.6,17-82.6,17S37.62,139.11,50.57,134.44Z"/><path class="cls-2" d="M167.14,86.45c39.71-5.29,86.52,3,102.33,9.85-26.64.7-85.56-1.52-93.89.94-9.62,2.84-20.66,9.73-37.17,25.93C104,157,39.18,152.58,39.18,152.58a19.41,19.41,0,0,1,.63-6.51l32-4.92C126.45,132.73,108.55,94.23,167.14,86.45Z"/><path class="cls-2" d="M142.88,112.07c-1.23,6.32-9.58,51.81,2.09,62.1a42.78,42.78,0,0,1-24.43-7.25V144.81A35.31,35.31,0,0,1,142.88,112.07Z"/><path class="cls-3" d="M0,152.77a29.91,29.91,0,1,0,29.9-29.9A29.91,29.91,0,0,0,0,152.77Z"/><path class="cls-4" d="M44.21,135a1.59,1.59,0,1,0,3.17,0,1.59,1.59,0,0,0-3.17,0Z"/><path class="cls-4" d="M40.9,131.75a1.66,1.66,0,1,0,1.66-1.65A1.66,1.66,0,0,0,40.9,131.75Z"/><path class="cls-4" d="M40.9,138.8a3.8,3.8,0,1,1-3.81-3.8A3.8,3.8,0,0,1,40.9,138.8Z"/><path class="cls-4" d="M36.46,131.67a1.58,1.58,0,1,1-1.58-1.57A1.58,1.58,0,0,1,36.46,131.67Z"/><path class="cls-5" d="M30.92,137.69a1.11,1.11,0,1,1-2.21,0,1.11,1.11,0,0,1,2.21,0Z"/><path class="cls-4" d="M24.75,131.28a2.14,2.14,0,1,1-2.13-2.14A2.13,2.13,0,0,1,24.75,131.28Z"/><path class="cls-5" d="M34.41,150.66a2.85,2.85,0,1,1-2.85-2.85A2.85,2.85,0,0,1,34.41,150.66Z"/><path class="cls-5" d="M47.7,147.9a2.77,2.77,0,1,0,2.77-2.77A2.76,2.76,0,0,0,47.7,147.9Z"/><path class="cls-4" d="M40.53,150.92a1.84,1.84,0,1,0,1.84-1.84A1.84,1.84,0,0,0,40.53,150.92Z"/><path class="cls-5" d="M35.67,160.71a2.62,2.62,0,1,0,2.62-2.61A2.61,2.61,0,0,0,35.67,160.71Z"/><path class="cls-5" d="M33.3,156.52a.79.79,0,1,0,.79-.79A.79.79,0,0,0,33.3,156.52Z"/><path class="cls-4" d="M24.75,145.13a2.54,2.54,0,1,0,2.54-2.54A2.54,2.54,0,0,0,24.75,145.13Z"/><path class="cls-4" d="M20.48,141.48a1.43,1.43,0,1,0,1.43-1.41A1.42,1.42,0,0,0,20.48,141.48Z"/><path class="cls-4" d="M17.33,148.29a1.58,1.58,0,1,0,1.58-1.58A1.57,1.57,0,0,0,17.33,148.29Z"/><path class="cls-4" d="M19.68,151.68a1.83,1.83,0,1,0,1.83-1.82A1.82,1.82,0,0,0,19.68,151.68Z"/><path class="cls-5" d="M19.92,159a1.71,1.71,0,1,0,1.71-1.7A1.71,1.71,0,0,0,19.92,159Z"/><path class="cls-5" d="M23.57,163.28a2.57,2.57,0,1,0,2.57-2.57A2.58,2.58,0,0,0,23.57,163.28Z"/><path class="cls-5" d="M12.26,142.59a2.54,2.54,0,1,0,2.53-2.52A2.54,2.54,0,0,0,12.26,142.59Z"/><path class="cls-4" d="M11.15,137a2.77,2.77,0,1,0,2.76-2.77A2.75,2.75,0,0,0,11.15,137Z"/><path class="cls-5" d="M4.81,143.46a2,2,0,1,0,2-2A2,2,0,0,0,4.81,143.46Z"/><path class="cls-4" d="M6.8,152a2.18,2.18,0,0,0,4.35,0,2.18,2.18,0,1,0-4.35,0Z"/><path class="cls-4" d="M9,157.83a2.89,2.89,0,1,0,2.89-2.89A2.89,2.89,0,0,0,9,157.83Z"/><path class="cls-5" d="M13.2,169.49a3.64,3.64,0,1,0,3.64-3.63A3.64,3.64,0,0,0,13.2,169.49Z"/><path class="cls-5" d="M31.56,167.51a1.66,1.66,0,1,0,1.66-1.65A1.66,1.66,0,0,0,31.56,167.51Z"/><path class="cls-5" d="M22.69,172.18a3,3,0,1,0,3-3A3,3,0,0,0,22.69,172.18Z"/><path class="cls-5" d="M42.32,167a2.53,2.53,0,1,0,2.54-2.53A2.53,2.53,0,0,0,42.32,167Z"/><path class="cls-5" d="M37.09,170.68a2.3,2.3,0,1,0,2.3-2.29A2.3,2.3,0,0,0,37.09,170.68Z"/><path class="cls-5" d="M29.93,161.64A1.65,1.65,0,1,0,31.58,160,1.64,1.64,0,0,0,29.93,161.64Z"/><path class="cls-4" d="M50.47,155.57a2.81,2.81,0,1,0,2.81-2.8A2.81,2.81,0,0,0,50.47,155.57Z"/><path class="cls-5" d="M42.32,157.47a2.53,2.53,0,1,0,2.54-2.53A2.54,2.54,0,0,0,42.32,157.47Z"/><path class="cls-4" d="M49.55,162.57a1.87,1.87,0,1,0,1.87-1.86A1.86,1.86,0,0,0,49.55,162.57Z"/><path class="cls-4" d="M48.49,140.7a1.9,1.9,0,1,0,1.89-1.9A1.89,1.89,0,0,0,48.49,140.7Z"/><path class="cls-5" d="M41.68,144.65a2.07,2.07,0,1,0,2.07-2.06A2.07,2.07,0,0,0,41.68,144.65Z"/><path class="cls-4" d="M6.32,168.27a2.42,2.42,0,1,0,2.41-2.41A2.41,2.41,0,0,0,6.32,168.27Z"/><path class="cls-4" d="M33.6,177.24a1.75,1.75,0,1,0,1.74-1.76A1.74,1.74,0,0,0,33.6,177.24Z"/><path class="cls-6" d="M166,11.49c1-.51,2-1,3-1.49q1.09-.51,2.19-1,1.32-.59,2.64-1.14c.77-.31,1.54-.63,2.3-.92.92-.35,1.83-.68,2.75-1,.69-.25,1.4-.5,2.1-.73,38.66-12.8,78.45-.93,100.64,24.35C267.81,20.76,246.23,9.45,225.83,9c-27.49-.55-60.35,8.72-83.81,41.57-19.87,27.82-36,58.93-68.09,71.09v0l.87-.74,1.74-1.52c.36-.32.74-.66,1.11-1,.58-.53,1.18-1.09,1.79-1.67.35-.33.7-.65,1-1,1-.92,2-1.9,3-2.94l.46-.47,2.9-3c.34-.37.7-.75,1.06-1.12l2.7-2.9c.35-.39.71-.77,1.07-1.18,1.28-1.39,2.59-2.85,4-4.41,24.35-27.46,30.73-64.89,63.8-84.66,1.58-.94,3.17-1.82,4.77-2.68Z"/><path class="cls-6" d="M232.19,109.52c21.91,0,43.83-4.22,59.37-7.34,9.89-2,12.33-10.46,12.83-16.41,6.06,5.89,5.4,14.64,1.06,19,10.68,6.07,10.93,27,10.93,40.06v22.36a35.31,35.31,0,0,1-1,8.15c-6.69-1.52-12.56-3.48-12.46-5.7.41-8.85,3.13-38-6-49.78S242,119.37,232.19,109.52Z"/><path class="cls-3" d="M123.28,156l190.66.77a14.56,14.56,0,0,1,14.45,14.58l-.19,45.92A14.84,14.84,0,0,1,315.7,224L121,223.17a14.9,14.9,0,0,1-12.45-6.8l.19-45.93A14.54,14.54,0,0,1,123.28,156Z"/><path class="cls-4" d="M119.88,162.19,317.3,163a15.21,15.21,0,0,1,10.5,4.23,14,14,0,0,1,.59,4.11l-.19,46.45a14.53,14.53,0,0,1-14.57,14.44L123,231.47a14.55,14.55,0,0,1-14.44-14.57l.19-46.46a14.13,14.13,0,0,1,.61-4.08A15.24,15.24,0,0,1,119.88,162.19Z"/><path class="cls-5" d="M328.2,216.61v1.18a14.53,14.53,0,0,1-14.57,14.44L123,231.47a14.55,14.55,0,0,1-14.44-14.57v-.69a14.87,14.87,0,0,0,12.53,7l194.25.78A14.83,14.83,0,0,0,328.2,216.61Z"/><path class="cls-7" d="M198.68,179.51l-.1.25a9.66,9.66,0,0,0-14.12-3.13,9.67,9.67,0,0,0-14.41-7.53,13.58,13.58,0,0,0,1.19-2.07,13,13,0,0,0-6.41-17.15A13,13,0,0,0,182,143.44a13.92,13.92,0,0,0,.77-2.25,9.68,9.68,0,0,0,15.15,5.9,9.68,9.68,0,0,0,11.65,8.59,1.71,1.71,0,0,0-.13.23,13,13,0,0,0,2.28,14.17l-.83,1.84A13,13,0,0,0,198.68,179.51Z"/><path class="cls-8" d="M178.83,168.7a9.65,9.65,0,0,0-8.78.4,13.58,13.58,0,0,0,1.19-2.07,13,13,0,0,0-6.41-17.15s0,0,0,0L211.28,171l-.42.92a13,13,0,0,0-12.18,7.59l-.1.25a9.66,9.66,0,0,0-14.12-3.13A9.65,9.65,0,0,0,178.83,168.7Z"/><path class="cls-7" d="M206.16,157l-.25-.1A9.66,9.66,0,0,0,209,142.8a9.68,9.68,0,0,0,7.54-14.41,12.7,12.7,0,0,0,2.06,1.19,13,13,0,0,0,17.15-6.41,13,13,0,0,0,6.45,17.13,12.6,12.6,0,0,0,2.26.78,9.68,9.68,0,0,0-5.91,15.16A9.66,9.66,0,0,0,230,167.88l-.24-.13A13,13,0,0,0,215.59,170l-1.84-.83A13,13,0,0,0,206.16,157Z"/><path class="cls-8" d="M217,137.17a9.62,9.62,0,0,0-.39-8.78,12.7,12.7,0,0,0,2.06,1.19,13,13,0,0,0,17.15-6.41,0,0,0,0,1,0,0l-21.1,46.42-.92-.42A13,13,0,0,0,206.16,157l-.25-.1A9.66,9.66,0,0,0,209,142.8,9.65,9.65,0,0,0,217,137.17Z"/><path class="cls-1" d="M202.64,172.73a7.91,7.91,0,1,0,7.91-7.91A7.91,7.91,0,0,0,202.64,172.73Z"/><path class="cls-6" d="M208.08,172a2.84,2.84,0,1,0,2.83-2.84A2.84,2.84,0,0,0,208.08,172Z"/><path class="cls-1" d="M215,180.64a7.91,7.91,0,1,0,7.9-7.91A7.91,7.91,0,0,0,215,180.64Z"/><path class="cls-6" d="M220.43,180a2.84,2.84,0,1,0,2.83-2.83A2.84,2.84,0,0,0,220.43,180Z"/><path class="cls-1" d="M198,186.93a7.91,7.91,0,1,0,7.92-7.92A7.92,7.92,0,0,0,198,186.93Z"/><path class="cls-6" d="M203.44,186.23a2.84,2.84,0,1,0,2.83-2.83A2.82,2.82,0,0,0,203.44,186.23Z"/></g></g></svg>