<svg xmlns="http://www.w3.org/2000/svg" viewBox="0 0 387.9 253"><defs><style>.cls-1{fill:#e0e0e0;}.cls-2{fill:#cecece;}.cls-3{fill:#bfbfbf;}.cls-4{fill:#ea6f00;}.cls-5{fill:#ff9c00;}.cls-6{fill:#afafaf;}.cls-7{fill:#84827f;}.cls-8{fill:#ffb400;}.cls-9{fill:#ce5a02;}</style></defs><g id="Capa_2" data-name="Capa 2"><g id="Capa_1-2" data-name="Capa 1"><path class="cls-1" d="M272.52,123.68S379.42,103.31,358.59,0C406,47.23,402,145.3,301,171.18,293.19,173.16,272.52,123.68,272.52,123.68Z"/><path class="cls-2" d="M364.57,6.56c19.93,94.2-64.44,126.77-84.85,133.2C286.45,154,296.17,172.4,301,171.18,397.54,146.44,405.46,55.77,364.57,6.56Z"/><path class="cls-3" d="M384.4,45.33c-6.94,88.71-70.55,108.78-95,113.22,4.46,7.65,8.8,13.33,11.53,12.63C375.57,152.07,397.23,93.62,384.4,45.33Z"/><path class="cls-1" d="M115.38,123.68S8.48,103.31,29.31,0C-18.1,47.23-14.11,145.3,86.94,171.18,94.71,173.16,115.38,123.68,115.38,123.68Z"/><path class="cls-2" d="M23.33,6.56c-19.93,94.2,64.45,126.77,84.85,133.2C101.45,154,91.73,172.4,86.94,171.18-9.64,146.44-17.55,55.77,23.33,6.56Z"/><path class="cls-3" d="M3.51,45.33c6.94,88.71,70.55,108.78,95,113.22-4.47,7.65-8.8,13.33-11.53,12.63C12.33,152.07-9.33,93.62,3.51,45.33Z"/><path class="cls-4" d="M288.78,186.54l13.14-7.85a9.77,9.77,0,0,0,3.37-13.35L279.76,122.6a9.76,9.76,0,0,0-13.35-3.37l-13.15,7.85Z"/><path class="cls-5" d="M267.12,118.9l35.43,59.32a9.75,9.75,0,0,0,2.74-12.88L279.76,122.6A9.73,9.73,0,0,0,267.12,118.9Z"/><path class="cls-4" d="M99.13,186.54,86,178.69a9.76,9.76,0,0,1-3.37-13.35l25.52-42.74a9.77,9.77,0,0,1,13.36-3.37l13.14,7.85Z"/><path class="cls-5" d="M120.78,118.9,85.35,178.22a9.73,9.73,0,0,1-2.73-12.88l25.52-42.74A9.73,9.73,0,0,1,120.78,118.9Z"/><path class="cls-6" d="M194,106.07c-57,0-103.24,48.1-103.24,107.45H297.2C297.2,154.17,251,106.07,194,106.07Z"/><path class="cls-7" d="M287.06,224.69a76.39,76.39,0,0,0,.85-11.17c0-46.5-42.07-84.19-94-84.19S100,167,100,213.52a76.39,76.39,0,0,0,.85,11.17Z"/><path class="cls-4" d="M172,108.51v105h43.84v-105a99.68,99.68,0,0,0-43.84,0Z"/><path class="cls-5" d="M179.34,107.16V213.52h29.22V107.16a98.46,98.46,0,0,0-29.22,0Z"/><rect class="cls-4" x="82.24" y="209.17" width="223.43" height="43.83" rx="9.74"/><path class="cls-8" d="M295.93,209.17H92a9.76,9.76,0,0,0-9.74,9.74v5.78H305.67v-5.78A9.77,9.77,0,0,0,295.93,209.17Z"/><path class="cls-5" d="M82.24,218.91v24.35a9.91,9.91,0,0,0,.34,2.44H305.32a9.46,9.46,0,0,0,.35-2.44V218.91a9.4,9.4,0,0,0-.35-2.44H82.58A9.84,9.84,0,0,0,82.24,218.91Z"/><path class="cls-9" d="M106.59,231.08A7.61,7.61,0,1,1,99,223.47,7.61,7.61,0,0,1,106.59,231.08Z"/><path class="cls-8" d="M102.93,231.08a4,4,0,1,1-4-4A4,4,0,0,1,102.93,231.08Z"/><path class="cls-9" d="M296.54,231.08a7.61,7.61,0,1,1-7.61-7.61A7.61,7.61,0,0,1,296.54,231.08Z"/><path class="cls-8" d="M292.89,231.08a4,4,0,1,1-4-4A4,4,0,0,1,292.89,231.08Z"/><path class="cls-9" d="M269.4,231.08a7.61,7.61,0,1,1-7.61-7.61A7.61,7.61,0,0,1,269.4,231.08Z"/><path class="cls-8" d="M265.75,231.08a4,4,0,1,1-4-4A4,4,0,0,1,265.75,231.08Z"/><path class="cls-9" d="M242.26,231.08a7.61,7.61,0,1,1-7.61-7.61A7.6,7.6,0,0,1,242.26,231.08Z"/><path class="cls-8" d="M238.61,231.08a4,4,0,1,1-4-4A4,4,0,0,1,238.61,231.08Z"/><path class="cls-9" d="M215.13,231.08a7.61,7.61,0,1,1-7.61-7.61A7.61,7.61,0,0,1,215.13,231.08Z"/><path class="cls-8" d="M211.47,231.08a4,4,0,1,1-3.95-4A4,4,0,0,1,211.47,231.08Z"/><path class="cls-9" d="M188,231.08a7.61,7.61,0,1,1-7.61-7.61A7.6,7.6,0,0,1,188,231.08Z"/><path class="cls-8" d="M184.34,231.08a4,4,0,1,1-4-4A4,4,0,0,1,184.34,231.08Z"/><path class="cls-9" d="M160.86,231.08a7.61,7.61,0,1,1-7.61-7.61A7.61,7.61,0,0,1,160.86,231.08Z"/><path class="cls-8" d="M157.21,231.08a4,4,0,1,1-4-4A4,4,0,0,1,157.21,231.08Z"/><path class="cls-9" d="M133.72,231.08a7.61,7.61,0,1,1-7.61-7.61A7.61,7.61,0,0,1,133.72,231.08Z"/><path class="cls-8" d="M130.07,231.08a4,4,0,1,1-4-4A4,4,0,0,1,130.07,231.08Z"/><path class="cls-9" d="M194,109.85a7.61,7.61,0,1,1-7.61,7.6A7.61,7.61,0,0,1,194,109.85Z"/><path class="cls-8" d="M194,113.5a4,4,0,1,1-3.95,4A4,4,0,0,1,194,113.5Z"/><path class="cls-9" d="M194,137a7.61,7.61,0,1,1-7.61,7.61A7.61,7.61,0,0,1,194,137Z"/><path class="cls-8" d="M194,140.64a4,4,0,1,1-3.95,4A4,4,0,0,1,194,140.64Z"/><path class="cls-9" d="M194,164.12a7.61,7.61,0,1,1-7.61,7.61A7.6,7.6,0,0,1,194,164.12Z"/><path class="cls-8" d="M194,167.77a4,4,0,1,1-3.95,4A4,4,0,0,1,194,167.77Z"/><path class="cls-9" d="M194,191.26a7.61,7.61,0,1,1-7.61,7.61A7.6,7.6,0,0,1,194,191.26Z"/><path class="cls-8" d="M194,194.91a4,4,0,1,1-3.95,4A4,4,0,0,1,194,194.91Z"/></g></g></svg>