<svg xmlns="http://www.w3.org/2000/svg" viewBox="0 0 420.53 182.13"><defs><style>.cls-1{fill:#ea6f00;}.cls-2{fill:#fb0709;}.cls-3{fill:#ff9c00;}.cls-4{fill:#ffb400;}.cls-5{fill:#e0e0e0;}.cls-6{fill:#1c8d1b;}</style></defs><g id="Capa_2" data-name="Capa 2"><g id="Capa_1-2" data-name="Capa 1"><path class="cls-1" d="M210.27,105.35c-74.21,0-141.73-6-192.23-15.78H10.91l14.86,31.29L72.4,140.93l176.53,7.38,158.33-27.45,2.36-31.29h-7.14C352,99.37,284.47,105.35,210.27,105.35Z"/><path d="M418.67,100.05c-4-11.89-11.59-10.42-11.59-10.42-.2,12.89-23.55,22-32.28,24.14-46.85,11.32-103,17.91-163.32,17.91h-2.43c-60.35,0-116.47-6.59-163.32-17.91-8.72-2.11-32.08-11.25-32.3-24.14,0,0-7.57-1.47-11.57,10.42-7.67,22.85,10.71,39.07,13.53,41.13,34.79,25.32,118,40.95,193.66,40.95h2.43c75.66,0,158.87-15.63,193.66-40.95C408,139.12,426.35,122.9,418.67,100.05Z"/><path class="cls-2" d="M211.48,182.13c75.66,0,158.87-15.63,193.66-40.95a41.68,41.68,0,0,0,7.92-8.41c-46.8,22.46-120.23,36.93-202.79,36.93s-156-14.47-202.8-36.93a41.68,41.68,0,0,0,7.92,8.41c34.79,25.32,118,40.95,193.66,40.95Z"/><path class="cls-1" d="M407.08,89.63c-.21,12.89-23.56,22-32.28,24.14-46.85,11.32-103,17.91-163.32,17.91H209c-60.34,0-116.46-6.59-163.31-17.91-8.72-2.11-32.08-11.25-32.3-24.14,0,0-7.57-1.47-11.57,10.42A33.92,33.92,0,0,0,.11,113.64c47.72,26.59,124.09,43.81,210.15,43.81s162.45-17.22,210.17-43.81a34,34,0,0,0-1.77-13.59C414.67,88.16,407.08,89.63,407.08,89.63Z"/><path class="cls-3" d="M249.72,22C239.93,8.47,225.87,0,210.27,0S180.59,8.47,170.8,22s-28.54,101.52-28.54,101.52h136S259.52,35.51,249.72,22Z"/><path class="cls-4" d="M251.27,24.58A20.07,20.07,0,0,0,249.72,22C239.93,8.47,225.87,0,210.27,0S180.59,8.47,170.8,22a20.18,20.18,0,0,0-1.53,2.59,140,140,0,0,1,82,0Z"/><path class="cls-2" d="M210.26,152.15c87.13,0,164.06-17.1,210.19-43.2a34.88,34.88,0,0,0-1.79-8.9c-4-11.89-11.58-10.42-11.58-10.42-.21,12.89-23.56,22-32.28,24.14-46.85,11.32-103,17.91-163.32,17.91H209c-60.34,0-116.46-6.59-163.31-17.91-8.72-2.11-32.08-11.25-32.3-24.14,0,0-7.57-1.47-11.57,10.42A35.69,35.69,0,0,0,.09,109C46.21,135.05,123.13,152.15,210.26,152.15Z"/><path class="cls-5" d="M220.77,158a10.51,10.51,0,1,1-10.5-10.51A10.51,10.51,0,0,1,220.77,158Z"/><rect class="cls-5" x="208.97" y="134.05" width="2.59" height="16.7"/><path class="cls-5" d="M253.86,158a10.51,10.51,0,1,1-10.51-10.51A10.51,10.51,0,0,1,253.86,158Z"/><rect class="cls-5" x="242.06" y="134.05" width="2.59" height="16.7"/><path class="cls-5" d="M287,155.83a10.51,10.51,0,1,1-10.51-10.51A10.51,10.51,0,0,1,287,155.83Z"/><rect class="cls-5" x="275.15" y="131.86" width="2.59" height="16.7"/><path class="cls-5" d="M320,153.63a10.5,10.5,0,1,1-10.5-10.5A10.5,10.5,0,0,1,320,153.63Z"/><rect class="cls-5" x="308.24" y="129.66" width="2.59" height="16.7"/><path class="cls-5" d="M353.12,147.05a10.51,10.51,0,1,1-10.5-10.5A10.5,10.5,0,0,1,353.12,147.05Z"/><rect class="cls-5" x="341.33" y="123.08" width="2.59" height="16.7"/><path class="cls-5" d="M386.21,140.47a10.5,10.5,0,1,1-10.5-10.5A10.5,10.5,0,0,1,386.21,140.47Z"/><rect class="cls-5" x="374.41" y="116.5" width="2.59" height="16.7"/><path class="cls-5" d="M417.1,127.3a10.5,10.5,0,1,1-10.49-10.49A10.5,10.5,0,0,1,417.1,127.3Z"/><rect class="cls-5" x="405.31" y="103.34" width="2.59" height="16.7"/><path class="cls-5" d="M24.43,127.3a10.51,10.51,0,1,1-10.5-10.49A10.5,10.5,0,0,1,24.43,127.3Z"/><rect class="cls-5" x="12.64" y="103.34" width="2.59" height="16.7"/><path class="cls-5" d="M55.33,140.47A10.51,10.51,0,1,1,44.82,130,10.51,10.51,0,0,1,55.33,140.47Z"/><rect class="cls-5" x="43.53" y="116.5" width="2.59" height="16.7"/><path class="cls-5" d="M88.41,147.05a10.51,10.51,0,1,1-10.5-10.5A10.5,10.5,0,0,1,88.41,147.05Z"/><rect class="cls-5" x="76.62" y="123.08" width="2.59" height="16.7"/><path class="cls-5" d="M121.51,153.63A10.51,10.51,0,1,1,111,143.13,10.51,10.51,0,0,1,121.51,153.63Z"/><rect class="cls-5" x="109.7" y="129.66" width="2.59" height="16.7"/><path class="cls-5" d="M154.59,155.83a10.51,10.51,0,1,1-10.5-10.51A10.5,10.5,0,0,1,154.59,155.83Z"/><rect class="cls-5" x="142.79" y="131.86" width="2.59" height="16.7"/><path class="cls-5" d="M187.67,158a10.5,10.5,0,1,1-10.49-10.51A10.5,10.5,0,0,1,187.67,158Z"/><rect class="cls-5" x="175.88" y="134.05" width="2.59" height="16.7"/><path class="cls-6" d="M210.26,142.65c92.75,0,172.61-17.31,208.53-42.19a3.84,3.84,0,0,0-.13-.41c-4-11.89-11.58-10.42-11.58-10.42-.21,12.89-23.56,22-32.28,24.14-46.85,11.32-103,17.91-163.32,17.91H209c-60.34,0-116.46-6.59-163.31-17.91-8.72-2.11-32.08-11.25-32.3-24.14,0,0-7.57-1.47-11.57,10.42-.05.14-.08.28-.13.41C37.66,125.34,117.52,142.65,210.26,142.65Z"/></g></g></svg>