<svg xmlns="http://www.w3.org/2000/svg" viewBox="0 0 400.1 233.92"><defs><style>.cls-1{fill:#1db2dd;}.cls-2{fill:#fb0709;}.cls-3{fill:#282828;}.cls-4{fill:#444;}.cls-5{fill:#ea6f00;}.cls-6{fill:#cecece;}.cls-7{fill:#e0e0e0;}.cls-8{fill:#bfbfbf;}.cls-9{fill:#ff9c00;}</style></defs><g id="Capa_2" data-name="Capa 2"><g id="Capa_1-2" data-name="Capa 1"><path class="cls-1" d="M115.89,210.73h67.59s-11.55-61.28-44.92-77.94S60,120.13,36.17,152.05C92.5,146.47,115.89,210.73,115.89,210.73Z"/><path class="cls-2" d="M182,210.73h67.59s-33.8-78.53-33.8-123.15,22.38-63.07,33.8-65.44C218.81,2.5,154.56,26.3,150.28,84,145,155.64,182,210.73,182,210.73Z"/><path class="cls-1" d="M157.9,210.73c-7.79-22.67-21.88-46.91-61.15-63.07-24.47-10.07-41.48-8.64-52.26-4.87a68.48,68.48,0,0,0-8.32,9.26c56.33-5.58,79.72,58.68,79.72,58.68Z"/><path class="cls-1" d="M138.56,132.79A91.78,91.78,0,0,0,79,125.12c12.87,0,27,2,39.3,8.26,29.35,15,48.6,47.59,54,77.35h11.22S171.93,149.45,138.56,132.79Z"/><path class="cls-2" d="M150.28,84a194.69,194.69,0,0,0-.26,24c7.6-31,30.15-89.73,91-81.92a25.13,25.13,0,0,1,8.56-3.87C218.81,2.5,154.56,26.3,150.28,84Z"/><path class="cls-2" d="M215.83,87.58c0-13.85,2.16-25.17,5.47-34.27-16.53,11.75-39.19,47.83-3.65,157.42h32S215.83,132.2,215.83,87.58Z"/><path class="cls-3" d="M135,149.48a9.53,9.53,0,1,1-9.53-9.53A9.53,9.53,0,0,1,135,149.48Z"/><path class="cls-3" d="M92.51,138.06a6,6,0,1,0,6-6A6,6,0,0,0,92.51,138.06Z"/><path d="M113.42,162.83A7.44,7.44,0,1,1,106,155.4,7.44,7.44,0,0,1,113.42,162.83Z"/><path class="cls-3" d="M131.86,171.26a7.34,7.34,0,1,0,7.34-7.33A7.34,7.34,0,0,0,131.86,171.26Z"/><path d="M131.23,191.07a8.91,8.91,0,1,1-8.9-8.9A8.91,8.91,0,0,1,131.23,191.07Z"/><path class="cls-3" d="M146.54,192.57a10.4,10.4,0,1,0,10.4-10.4A10.4,10.4,0,0,0,146.54,192.57Z"/><path class="cls-3" d="M161,170.74a10.61,10.61,0,0,0,7.74-3.36,109.51,109.51,0,0,0-10.67-17.48A10.63,10.63,0,0,0,161,170.74Z"/><path class="cls-4" d="M149.76,149.48a10,10,0,0,0,6.26-2.19,57.57,57.57,0,0,0-14.84-13,10,10,0,0,0,8.58,15.24Z"/><path class="cls-3" d="M79.39,138.06A14.45,14.45,0,0,0,65,152.5a14.78,14.78,0,0,0,.37,3.22A69.68,69.68,0,0,1,83.8,166.25a14.44,14.44,0,0,0-4.41-28.19Z"/><path class="cls-3" d="M53.19,144.09a10.47,10.47,0,0,0,10.47-10.47,10.24,10.24,0,0,0-.52-3.25,70.77,70.77,0,0,0-17,10.94A10.37,10.37,0,0,0,53.19,144.09Z"/><path class="cls-5" d="M287.74,21.33A21.34,21.34,0,1,1,266.41,0,21.33,21.33,0,0,1,287.74,21.33Z"/><path class="cls-5" d="M42.67,155.4a21.34,21.34,0,1,1-21.34-21.34A21.33,21.33,0,0,1,42.67,155.4Z"/><path class="cls-4" d="M161.09,154.09A.35.35,0,0,1,161,154c-.95-1.4-1.93-2.78-2.95-4.11a10.62,10.62,0,0,0-7.69,10.21c0,.38.07.74.1,1.11,2,2.67,3.87,5.44,5.63,8.27a10.5,10.5,0,0,0,4.89,1.25,10.61,10.61,0,0,0,7.74-3.36q-1.08-2.16-2.24-4.31c-.08-.13-.14-.25-.21-.38C164.7,159.75,163,156.86,161.09,154.09Z"/><path d="M147.51,188.23a10.35,10.35,0,0,0,7.38,14.53A103,103,0,0,0,147.51,188.23Z"/><path d="M47,142a10.31,10.31,0,0,0,6.19,2.08A10.44,10.44,0,0,0,61.47,140,54.37,54.37,0,0,0,47,142Z"/><path d="M139.2,178.6a7.55,7.55,0,0,0,1.36-.14,91.35,91.35,0,0,0-8.45-9,6.94,6.94,0,0,0-.25,1.77A7.34,7.34,0,0,0,139.2,178.6Z"/><path d="M92.23,145.9a96.84,96.84,0,0,0-21-5.33A14.43,14.43,0,0,0,65,152.5a14.78,14.78,0,0,0,.37,3.22c.21.08.4.18.6.26,1.34.51,2.63,1.07,3.91,1.66.38.17.75.36,1.13.54,1.21.59,2.39,1.22,3.56,1.87.29.16.59.32.88.5a73.53,73.53,0,0,1,8.17,5.53l.23.17a14.41,14.41,0,0,0,8.43-20.35Z"/><path class="cls-2" d="M237.14,210.73h67.59s-3.61-20.58-2.34-41c1-16.85,23.28-56.67,61.95-41.68-16.07-30.34-46.18-40.32-81.78-31.53C215.55,113,237.14,210.73,237.14,210.73Z"/><path class="cls-2" d="M364.34,128c-.5-.94-1-1.87-1.54-2.77a38.81,38.81,0,0,0-31.55-7.35c-27.36,5.36-44.76,29.6-48.19,49a154.68,154.68,0,0,0-1.54,43.8h23.21s-3.61-20.58-2.34-41C303.43,152.86,325.67,113,364.34,128Z"/><path class="cls-2" d="M282.56,96.5c-36.42,9-46.67,41.95-48.43,70.17,6.64-20.68,19.73-41,44.16-56.52s52.26-9.55,68.59-3.52C330.21,93.47,307.76,90.27,282.56,96.5Z"/><path class="cls-6" d="M302.69,134.18a11,11,0,1,1-11-11A11,11,0,0,1,302.69,134.18Z"/><path class="cls-6" d="M290.5,111.52a6.1,6.1,0,1,0,6.1-6.1A6.1,6.1,0,0,0,290.5,111.52Z"/><path class="cls-6" d="M304.09,117.13a9.2,9.2,0,1,0,9.2-9.2A9.19,9.19,0,0,0,304.09,117.13Z"/><path class="cls-6" d="M262.65,138.06a6,6,0,1,0,6.05-6A6,6,0,0,0,262.65,138.06Z"/><path class="cls-6" d="M287.8,161.71a9.55,9.55,0,1,1-9.55-9.56A9.55,9.55,0,0,1,287.8,161.71Z"/><path class="cls-6" d="M254.64,158a5.89,5.89,0,1,0,5.88-5.89A5.89,5.89,0,0,0,254.64,158Z"/><path class="cls-6" d="M256,181.68a6.35,6.35,0,1,0,6.34-6.34A6.34,6.34,0,0,0,256,181.68Z"/><path class="cls-6" d="M269.49,190.82a9.15,9.15,0,1,0,9.14-9.14A9.14,9.14,0,0,0,269.49,190.82Z"/><path class="cls-6" d="M319.37,94.54a10,10,0,0,0,17.83,5.88A63,63,0,0,0,319.37,94.54Z"/><path class="cls-7" d="M287.75,95.35q-2.58.51-5.19,1.15a62.79,62.79,0,0,0-13.69,5.06,10.68,10.68,0,0,0,18.88-6.21Z"/><path class="cls-6" d="M246,123.22a10.7,10.7,0,1,0,12.56-14.88A57.71,57.71,0,0,0,246,123.22Z"/><path class="cls-6" d="M242.91,155.4a9.09,9.09,0,1,0-3.53-17.46,99.43,99.43,0,0,0-3.52,14A9,9,0,0,0,242.91,155.4Z"/><path class="cls-6" d="M252,180.05a16.13,16.13,0,0,0-16.13-16.12c-.52,0-1,0-1.55.07a174.2,174.2,0,0,0,.59,32.13c.32,0,.64,0,1,0A16.13,16.13,0,0,0,252,180.05Z"/><path class="cls-6" d="M268.7,209.3a10.95,10.95,0,0,0-21.89,0,11.33,11.33,0,0,0,.11,1.43h21.67A11.33,11.33,0,0,0,268.7,209.3Z"/><path class="cls-8" d="M282.62,210.73h22.11s-.53-3-1.11-7.87a13.08,13.08,0,0,0-21,7.87Z"/><path class="cls-8" d="M302.68,167.23a13.85,13.85,0,0,0,.09,27.13,175.4,175.4,0,0,1-.38-24.65C302.44,168.93,302.54,168.1,302.68,167.23Z"/><path class="cls-6" d="M352.24,125a9.71,9.71,0,0,0,.36-2.48,9.49,9.49,0,1,0-19,0A9.35,9.35,0,0,0,334.8,127,38.29,38.29,0,0,1,352.24,125Z"/><path class="cls-5" d="M400.1,137.23a21.34,21.34,0,1,1-21.34-21.33A21.34,21.34,0,0,1,400.1,137.23Z"/><path class="cls-8" d="M292.06,145.17a10.66,10.66,0,0,0,10.49-12.41A66.43,66.43,0,0,0,292.06,145.17Z"/><path class="cls-8" d="M282.55,170.19a9.51,9.51,0,0,0,3.62-13.83,54.38,54.38,0,0,0-3.11,10.57C282.86,168,282.72,169.11,282.55,170.19Z"/><path class="cls-8" d="M287.78,190.82a9.13,9.13,0,0,0-6.63-8.75,154.84,154.84,0,0,0-.4,17.63A9.13,9.13,0,0,0,287.78,190.82Z"/><path class="cls-8" d="M352.6,122.53a9.29,9.29,0,0,0-.57-3.13,37.77,37.77,0,0,0-16.85-2.05,9.29,9.29,0,0,0-.38,9.65s0,0,0,0c.62-.22,1.25-.43,1.9-.62l.2-.06a37.14,37.14,0,0,1,6.14-1.28h0a39.87,39.87,0,0,1,9.14,0A9.71,9.71,0,0,0,352.6,122.53Z"/><path class="cls-8" d="M321.78,120.65a58.33,58.33,0,0,0-10.59,5.42,9.66,9.66,0,0,0,2.1.26A9.18,9.18,0,0,0,321.78,120.65Z"/><path class="cls-7" d="M242.91,137.23a9,9,0,0,0-3.52.71c0,.15-.1.29-.14.43-.29.86-.56,1.73-.81,2.6-.08.25-.15.49-.22.74-.29,1-.57,2-.82,3.06a1.09,1.09,0,0,1-.05.17c-.26,1.07-.51,2.15-.74,3.23-.06.31-.12.61-.19.91-.16.77-.31,1.54-.45,2.32,0,.19-.07.39-.1.58a9.25,9.25,0,0,0,3,2.46,101.6,101.6,0,0,1,9-15.7A9,9,0,0,0,242.91,137.23Z"/><path class="cls-7" d="M255,111.65a1.59,1.59,0,0,1-.13.13,57.11,57.11,0,0,0-6.08,7.25l-.16.21c-.86,1.22-1.67,2.48-2.44,3.76l-.13.23a10.68,10.68,0,0,0,9.35,6.1,105.23,105.23,0,0,1,11-10.52c0-.06,0-.11,0-.16a10.7,10.7,0,0,0-7.81-10.3l-.09.07C257.28,109.45,256.1,110.54,255,111.65Z"/><path class="cls-7" d="M321.9,100.71a94.8,94.8,0,0,1,12.44,2.12,10.13,10.13,0,0,0,2.85-2.4l-.09-.05c-1.3-.66-2.63-1.28-4-1.85l-.89-.34c-1.05-.42-2.1-.82-3.17-1.18-.49-.17-1-.31-1.48-.47-.91-.28-1.82-.55-2.75-.79-.55-.15-1.11-.28-1.66-.41-.92-.22-1.84-.41-2.77-.59-.34-.06-.67-.13-1-.18A10,10,0,0,0,321.9,100.71Z"/><path class="cls-9" d="M315.45,221.43A12.53,12.53,0,0,1,303,233.92H116.64a12.53,12.53,0,0,1-12.49-12.49v-1.19a12.53,12.53,0,0,1,12.49-12.49H303a12.53,12.53,0,0,1,12.49,12.49Z"/><path class="cls-5" d="M104.15,220.84v.59a12.53,12.53,0,0,0,12.49,12.49H303a12.53,12.53,0,0,0,12.49-12.49v-.59Z"/></g></g></svg>