<svg xmlns="http://www.w3.org/2000/svg" viewBox="0 0 228.12 179.98"><defs><style>.cls-1{fill:#f46256;}.cls-2{fill:#c10900;}.cls-3{fill:#fb0709;}.cls-4{fill:#ea6f00;}.cls-5{fill:#ff9c00;}.cls-6{fill:#ffb400;}</style></defs><g id="Capa_2" data-name="Capa 2"><g id="Capa_1-2" data-name="Capa 1"><path class="cls-1" d="M130.19,11c0,6-5.75,11-12.76,11h-6.74c-7,0-12.76-4.95-12.76-11s5.75-11,12.76-11h6.74C124.44,0,130.19,5,130.19,11Z"/><path class="cls-2" d="M228.12,144c0-8.27-51.07-38.38-114.06-38.38S0,135.74,0,144s51.07,15,114.06,15S228.12,152.29,228.12,144Z"/><path class="cls-2" d="M212.56,126l-98.5-20.34L15.57,126l-7.85,9.79s12.08,41.48,34.67,44S81.3,166.6,114.06,166.6s49.1,15.6,71.68,13.12,34.67-44,34.67-44Z"/><path class="cls-3" d="M180.84,173.6c-8.05,0-15.66-2.48-24.46-5.36-11.52-3.75-24.58-8-42.32-8s-30.79,4.27-42.31,8c-8.81,2.88-16.42,5.36-24.47,5.36a39.12,39.12,0,0,1-4.2-.22c-13.59-1.5-26.78-29.54-30.74-41.06l18.38-12.86,83.34-13.83,92.47,16.31,9.25,10.38c-4.06,11.9-17.06,39.55-30.73,41.06a39.44,39.44,0,0,1-4.21.22Z"/><path class="cls-1" d="M156.38,168.24c8.8,2.88,16.41,5.36,24.46,5.36h0a39.44,39.44,0,0,0,4.21-.22c13.67-1.51,26.67-29.16,30.73-41.06l-9.25-10.38-92.47-16.31v54.59C131.8,160.22,144.86,164.49,156.38,168.24Z"/><path class="cls-4" d="M114.06,114.19c44.19,0,84.3,10.85,114,28.51,0-1.1.06-2.2.06-3.31,0-71.89-51.07-130.18-114.06-130.18S0,67.5,0,139.39c0,1.11,0,2.21.08,3.31C29.76,125,69.87,114.19,114.06,114.19Z"/><path class="cls-5" d="M114.07,9.21c-42.43,0-76.81,49.36-76.81,110.25q0,3.27.14,6.51a247.1,247.1,0,0,1,76.66-11.78A247.17,247.17,0,0,1,190.73,126q.14-3.24.14-6.51C190.87,58.57,156.48,9.21,114.07,9.21Z"/><path class="cls-6" d="M114.07,9.21h0v105A247.17,247.17,0,0,1,190.73,126q.14-3.24.14-6.51C190.87,58.57,156.48,9.21,114.07,9.21Z"/></g></g></svg>