<svg xmlns="http://www.w3.org/2000/svg" viewBox="0 0 213.5 109.03"><defs><style>.cls-1,.cls-4{opacity:0.2;}.cls-2{fill:#fff;}.cls-3{fill:#3d3d3d;}</style></defs><g id="Capa_2" data-name="Capa 2"><g id="Capa_1-2" data-name="Capa 1"><path class="cls-1" d="M106.5,61c-1.49,2.4-3.58,5.83-6,10-5.86,10.15-6.29,12-6,14,.67,4.64,5.19,9.83,11,10,6.91.21,11.83-6.81,12-12,.08-2.44-.91-3.75-5-11C109.81,67.26,107.75,63.38,106.5,61Z"/><path class="cls-2" d="M139.5,5a33.52,33.52,0,0,0-21.65,8.59A28.41,28.41,0,0,0,113,29.5V42.08a111.55,111.55,0,0,1,57-.28V29.5a28.51,28.51,0,0,0-1.33-8.61A34.6,34.6,0,0,0,139.5,5Z"/><path class="cls-3" d="M144.5,38.27V32a12,12,0,1,0-24,0v8.33A112.26,112.26,0,0,1,144.5,38.27Z"/><path class="cls-2" d="M73.53,4a33.52,33.52,0,0,1,21.65,8.59A28.41,28.41,0,0,1,100,28.5V41.08a111.52,111.52,0,0,0-57-.28V28.5a28.5,28.5,0,0,1,1.32-8.61A34.6,34.6,0,0,1,73.53,4Z"/><g class="cls-4"><path d="M211.07,85.34c-1-.41-9.61-4.31-11.67-13.22a18.38,18.38,0,0,1,.84-10.67,4,4,0,0,0-7.47-2.86,26.62,26.62,0,0,0-1.62,12.76A143,143,0,0,1,105.47,101h-1.26A143.17,143.17,0,0,1,20.4,73.68a29,29,0,0,0-1.77-18.83,4,4,0,1,0-7.26,3.35,20.85,20.85,0,0,1,1.07,14.27l-.12.13a3.94,3.94,0,0,0-.8,2.41A21.35,21.35,0,0,1,2.17,85,4,4,0,0,0,4,92.53a4.06,4.06,0,0,0,1.84-.45,29.35,29.35,0,0,0,11.43-10.8A151.15,151.15,0,0,0,104.21,109h1.33a151,151,0,0,0,88.1-29.53C198,88,206.08,91.92,207.94,92.71a4.11,4.11,0,0,0,1.56.32,4,4,0,0,0,1.57-7.69Z"/><path d="M150,38.52c-1.87-.13-3.7-.21-5.5-.25a112.26,112.26,0,0,0-24,2.08c-2.67.52-5.17,1.11-7.48,1.73V47.5a28.5,28.5,0,1,0,57,0V41.8A112.42,112.42,0,0,0,150,38.52Z"/><path d="M141.52,1a28.5,28.5,0,0,0-23.67,12.61A33.52,33.52,0,0,1,139.5,5a34.6,34.6,0,0,1,29.19,15.87A28.52,28.52,0,0,0,141.52,1Z"/><path d="M63,37.52c1.87-.13,3.7-.21,5.5-.25a112.26,112.26,0,0,1,24,2.08c2.67.52,5.17,1.11,7.49,1.73V46.5a28.5,28.5,0,0,1-57,0V40.8A112.3,112.3,0,0,1,63,37.52Z"/><path d="M71.52,0A28.49,28.49,0,0,1,95.18,12.61,33.52,33.52,0,0,0,73.53,4,34.6,34.6,0,0,0,44.34,19.89,28.52,28.52,0,0,1,71.52,0Z"/></g><path class="cls-3" d="M68.53,37.27V31a12,12,0,1,1,24,0v8.33A112.26,112.26,0,0,0,68.53,37.27Z"/></g></g></svg>