<svg xmlns="http://www.w3.org/2000/svg" viewBox="0 0 127 112.62"><defs><style>.cls-1{fill:#fff;}.cls-2{opacity:0.2;}.cls-3{fill:#424242;}.cls-4{fill:#3d3d3d;}</style></defs><g id="Capa_2" data-name="Capa 2"><g id="Capa_1-2" data-name="Capa 1"><rect class="cls-1" width="57" height="75" rx="28.5"/><rect class="cls-1" x="70" y="1" width="57" height="75" rx="28.5"/><g class="cls-2"><path class="cls-3" d="M64,60c-1.49,2.4-3.58,5.82-6,10-5.86,10.14-6.29,12-6,14,.67,4.63,5.19,9.83,11,10,6.91.21,11.83-6.81,12-12,.08-2.44-.92-3.75-5-11C67.31,66.23,65.24,62.36,64,60Z"/><path class="cls-3" d="M55.66,112.62a46,46,0,0,1-12.77-1.78A39.93,39.93,0,0,1,26.3,102a38,38,0,0,1-7.82-10,4,4,0,0,1,7-3.8,30,30,0,0,0,6.18,8,32.07,32.07,0,0,0,13.41,7.11,38.84,38.84,0,0,0,17.21.9,4,4,0,1,1,1.36,7.88A47,47,0,0,1,55.66,112.62Z"/></g><path class="cls-4" d="M38,20.5a12,12,0,0,0-2.42.24A10.27,10.27,0,0,1,36.5,25,10.53,10.53,0,0,1,26,35.5c-.17,0-.33,0-.5,0V47a12.5,12.5,0,0,0,25,0V33A12.5,12.5,0,0,0,38,20.5Z"/><path class="cls-4" d="M89,20.5a12,12,0,0,0-2.42.24A10.27,10.27,0,0,1,87.5,25,10.53,10.53,0,0,1,77,35.5c-.17,0-.33,0-.5,0V47a12.5,12.5,0,0,0,25,0V33A12.5,12.5,0,0,0,89,20.5Z"/></g></g></svg>