<svg xmlns="http://www.w3.org/2000/svg" viewBox="0 0 136.33 111.68"><defs><style>.cls-1{fill:#fefffc;}.cls-2{fill:#3f3a41;}.cls-3{opacity:0.2;}</style></defs><g id="Capa_2" data-name="Capa 2"><g id="Capa_1-2" data-name="Capa 1"><path class="cls-1" d="M54,43.5a12.25,12.25,0,0,1-12.5,12A12.26,12.26,0,0,1,29,43.5a11.87,11.87,0,0,1,.41-3h-28A33.81,33.81,0,0,0,6,51.5a35.44,35.44,0,0,0,6,7c11.32,10.16,30.48,14.25,42,6a22.13,22.13,0,0,0,5-5c4.74-6.29,5.46-13.43,5.32-19H53.59A11.43,11.43,0,0,1,54,43.5Z"/><path class="cls-2" d="M41.5,55.5A12.25,12.25,0,0,0,54,43.5a11.43,11.43,0,0,0-.41-3H29.41a11.87,11.87,0,0,0-.41,3A12.26,12.26,0,0,0,41.5,55.5Z"/><path class="cls-3" d="M64,35.5C63.5,29.55,62.35,16.1,51.5,7A33.25,33.25,0,0,0,39,.5H3a91.51,91.51,0,0,0-3,24c.06,5.49.16,10.79,1.36,16h63C64.27,38.62,64.13,36.93,64,35.5Z"/><path class="cls-1" d="M82.33,43a12.51,12.51,0,0,0,25,0,11.43,11.43,0,0,0-.41-3H135a33.81,33.81,0,0,1-4.64,11,35.44,35.44,0,0,1-6,7c-11.32,10.16-30.47,14.25-42,6a22.35,22.35,0,0,1-5-5C72.6,52.71,71.88,45.57,72,40H82.74A11.43,11.43,0,0,0,82.33,43Z"/><path class="cls-2" d="M94.83,55a12.25,12.25,0,0,1-12.5-12,11.43,11.43,0,0,1,.41-3h24.18a11.43,11.43,0,0,1,.41,3A12.26,12.26,0,0,1,94.83,55Z"/><path class="cls-3" d="M72.33,35c.5-5.95,1.65-19.4,12.5-28.5A33.25,33.25,0,0,1,97.33,0h36a91.08,91.08,0,0,1,3,24c-.06,5.49-.16,10.79-1.36,16H72C72.06,38.12,72.21,36.43,72.33,35Z"/><path class="cls-3" d="M67.81,56.46c-1.5,2.4-3.59,5.82-6,10-5.87,10.14-6.29,12-6,14,.66,4.63,5.19,9.82,11,10,6.91.2,11.82-6.81,12-12,.08-2.45-.92-3.75-5-11C71.12,62.69,69.05,58.82,67.81,56.46Z"/><path class="cls-3" d="M72,111.68a44.48,44.48,0,0,1-15.95-2.94A45.34,45.34,0,0,1,35.21,92.27a4,4,0,1,1,6.59-4.54,37.19,37.19,0,0,0,17.14,13.53,36.81,36.81,0,0,0,19.84,1.81,4,4,0,1,1,1.45,7.86A45.38,45.38,0,0,1,72,111.68Z"/></g></g></svg>