<svg xmlns="http://www.w3.org/2000/svg" viewBox="0 0 211.51 94.96"><defs><style>.cls-1{fill:#f58a28;opacity:0.6;}.cls-2{fill:#683761;}</style></defs><g id="Capa_2" data-name="Capa 2"><g id="Capa_1-2" data-name="Capa 1"><path class="cls-1" d="M8.67,44.31c0,21.34,12.23,46.28,45,46.28s45.08-25,46.71-46.28c1.07-14-2.4-38.45-53.48-38.45C19.15,5.86,8.67,23,8.67,44.31Z"/><path class="cls-2" d="M53.64,95C19.56,95,4.31,69.52,4.31,44.31,4.31,17.1,19.82,1.5,46.87,1.5c23.4,0,40,5.09,49.29,15.13,6.55,7.07,9.42,16.5,8.54,28-1,13-5.51,24.89-12.71,33.57C82.91,89.17,69.65,95,53.64,95ZM46.87,10.23C18.91,10.23,13,28.76,13,44.31c0,19.33,10.63,41.91,40.6,41.91C89.93,86.22,95.23,53.88,96,44c.69-9.11-1.35-16.11-6.25-21.4C82.17,14.38,67.74,10.23,46.87,10.23Z"/><path class="cls-2" d="M53.86,10.37c-21-3.54-52.61-.2-52.92-.17L0,1.52c1.34-.14,33.09-3.5,55.31.24Z"/><path class="cls-1" d="M202.83,44.31c0,21.34-12.22,46.28-45,46.28s-45.08-25-46.71-46.28c-1.08-14,2.4-38.45,53.47-38.45C192.36,5.86,202.83,23,202.83,44.31Z"/><path class="cls-2" d="M157.87,95c-16,0-29.27-5.79-38.36-16.75-7.2-8.68-11.71-20.6-12.71-33.57-.88-11.51,2-20.94,8.55-28,9.3-10,25.88-15.13,49.28-15.13,27.06,0,42.57,15.6,42.57,42.81C207.2,69.52,192,95,157.87,95Zm6.76-84.73c-20.87,0-35.29,4.15-42.88,12.34-4.9,5.29-6.94,12.29-6.24,21.4.76,9.91,6.06,42.25,42.36,42.25,30,0,40.6-22.58,40.6-41.91C198.47,28.76,192.6,10.23,164.63,10.23Z"/><path class="cls-2" d="M157.65,10.37,156.2,1.76c22.21-3.74,54-.38,55.31-.24l-.94,8.68C210.25,10.17,178.66,6.83,157.65,10.37Z"/><path class="cls-2" d="M119.26,21.49c-17.93-11.09-29.39-.64-29.5-.54l-6-6.36C89.4,9.31,105,2.41,123.85,14.06Z"/></g></g></svg>