<svg xmlns="http://www.w3.org/2000/svg" viewBox="0 0 211.03 96.57"><defs><style>.cls-1{fill:#eb3a27;}.cls-2{fill:#424242;}</style></defs><g id="Capa_2" data-name="Capa 2"><g id="Capa_1-2" data-name="Capa 1"><path class="cls-1" d="M106.44,54.5c-3.47,23.22,18,43.91,40.06,41.94,33.59-3,64.53-60.72,64.53-83.89s-44.09-8.82-64.53,0C124.21,22.17,109.31,35.25,106.44,54.5Z"/><path class="cls-2" d="M113,58.63c-2.86,17.15,14.9,32.45,33.12,31,27.77-2.21,47.86-35.35,45.5-52.3-3.57-25.72-29.53-20.54-46.42-14C126.77,30.41,115.38,44.41,113,58.63Z"/><path class="cls-1" d="M100.14,65.85s5.63-9.13,11.92,0l1-17.56H99.17A97.86,97.86,0,0,0,100.14,65.85Z"/><path class="cls-1" d="M104.59,54.5c3.47,23.22-18,43.91-40.06,41.94C31,93.45,0,35.72,0,12.55s44.09-8.82,64.53,0C86.82,22.17,101.72,35.25,104.59,54.5Z"/><path class="cls-2" d="M99.31,58.63c2.86,17.15-14.9,32.45-33.13,31-27.76-2.21-47.85-35.35-45.5-52.3,3.58-25.72,29.54-20.54,46.43-14C85.54,30.41,96.93,44.41,99.31,58.63Z"/></g></g></svg>