<svg xmlns="http://www.w3.org/2000/svg" viewBox="0 0 229.43 98.23"><defs><style>.cls-1{fill:#315160;}.cls-2{fill:#70cacd;opacity:0.6;}</style></defs><g id="Capa_2" data-name="Capa 2"><g id="Capa_1-2" data-name="Capa 1"><path class="cls-1" d="M109.53,49.32l-.93-3.44c.25-.28,6.3-6.64,10.83.16l-1.18,3.12C114.73,43.88,109.58,49.27,109.53,49.32Z"/><circle class="cls-2" cx="63.3" cy="49.11" r="46.53"/><path class="cls-1" d="M63.3,98.23a49.12,49.12,0,1,1,49.11-49.12A49.17,49.17,0,0,1,63.3,98.23Zm0-93.06a43.95,43.95,0,1,0,43.94,43.94A44,44,0,0,0,63.3,5.17Z"/><rect class="cls-1" y="46.53" width="16.77" height="5.17"/><circle class="cls-2" cx="166.13" cy="49.11" r="46.53"/><path class="cls-1" d="M166.13,98.23a49.12,49.12,0,1,1,49.12-49.12A49.17,49.17,0,0,1,166.13,98.23Zm0-93.06a43.95,43.95,0,1,0,43.94,43.94A44,44,0,0,0,166.13,5.17Z"/><rect class="cls-1" x="212.66" y="46.53" width="16.77" height="5.17"/></g></g></svg>