<svg xmlns="http://www.w3.org/2000/svg" viewBox="0 0 352.83 244.91"><defs><style>.cls-1{fill:#5d3c2d;}</style></defs><g id="Capa_2" data-name="Capa 2"><g id="Capa_1-2" data-name="Capa 1"><path class="cls-1" d="M76.84,236.28a79.89,79.89,0,0,0-19.75,1c-13.8,2.48-18.77,7.23-30.14,6.23-3.49-.3-12.25-1.07-14.56-6.23-1.9-4.27,2.25-7.86,4.16-15.6,2.45-9.89-.91-18.63-3.12-24.94-3.47-9.95-6.58-10.63-9.87-18.2-7.92-18.16-.35-37.94,1-41.58,6.74-17.63,15.81-15.9,23.91-33.26s1.16-23.43,6.23-41.58c9-32.19,40.79-49,46.78-52A96,96,0,0,1,199,35.13a74.15,74.15,0,0,1,39.5-17.67c4.32-.52,30.42-3.24,53,14.55,2.26,1.78,25.24,20.39,27,46.78.54,8-1,14.33,3.12,22.87,4.61,9.48,10.74,10.3,17.67,17.67,13,13.87,16.16,37.38,11.43,54.06-4.9,17.3-16,19.15-14.55,32.22,1.08,10,8.2,14.71,6.24,26-.37,2.09-1.45,8.3-6.24,11.43-5.43,3.56-12.62,1.18-16.63,0-9.11-2.68-22.46-5.28-41.58-5.19a51.42,51.42,0,0,0,6.23-11.44,50.54,50.54,0,0,0,3.12-12.47V170.27c1.54.21,12.71,1.59,20.79-6.24,8.26-8,10.15-22.55,2.08-32.22-6.56-7.87-18-10.52-28.06-6.24a38,38,0,0,0-15.6-31.19c.21,2.58.54,5.37,1,8.32a94.71,94.71,0,0,0,2.08,9.36A77.06,77.06,0,0,1,200,74.63a78.32,78.32,0,0,1-21.82,27c-21.57,16.91-45.57,16.92-53,16.63a41.27,41.27,0,0,0-6.24-23.91,38.63,38.63,0,0,1-11.43,19.76,39.58,39.58,0,0,1-19.75,9.35c-15.32,2.9-19.63-4.67-31.19-1-7.36,2.32-17.08,9-18.71,19.75-1.35,8.94,3.29,17.93,10.4,22.87a25.71,25.71,0,0,0,17.67,4.16v44.7a29.52,29.52,0,0,0,10.91,22.35Z"/></g></g></svg>