<svg xmlns="http://www.w3.org/2000/svg" viewBox="0 0 226.29 58"><defs><style>.cls-1{fill:#5d3c2d;}</style></defs><g id="Capa_2" data-name="Capa 2"><g id="Capa_1-2" data-name="Capa 1"><path class="cls-1" d="M.31,58A55.22,55.22,0,0,1,6.7,25.65c.5-.9,11.16-19.35,31.93-24.53A44.84,44.84,0,0,1,45,0l140.5,1.12A41.8,41.8,0,0,1,197.76,3.9c2.88,1.14,18.69,7.72,25.54,25.66a47.52,47.52,0,0,1,2.13,25.65h-8.51c.56-4.92,2.19-23.9-9.58-35.69a31,31,0,0,0-13.84-7.81C166.55,4,148,21.5,116.86,21.75,83.52,22,67.81,2.24,38.1,10.6c-5.22,1.46-11.7,4-17,10C10.18,32.88,12,50.53,12.55,55.21Z"/></g></g></svg>