<svg xmlns="http://www.w3.org/2000/svg" viewBox="0 0 278.68 195.14"><defs><style>.cls-1{fill:#051d65;}.cls-2{fill:#152c7c;}.cls-3{fill:#ea6f00;}.cls-4{fill:#ffb400;}.cls-5{fill:#1e1e1e;}.cls-6{fill:#444;}.cls-7{fill:#545352;}.cls-8{fill:#605e5d;}.cls-9{fill:#020100;}.cls-10{fill:#ff9c00;}</style></defs><g id="Capa_2" data-name="Capa 2"><g id="Capa_1-2" data-name="Capa 1"><path class="cls-1" d="M164.34,143.91l28.11-35.12c8.18-6.61,8.18-17.42,0-24L102,36.1c-8.18-6.6-21.57-6.6-29.75,0L6.14,84.76c-8.19,6.61-8.19,17.42,0,24l28.1,35.12Z"/><path class="cls-1" d="M114.34,143.91l-28.1-35.12c-8.19-6.61-8.19-17.42,0-24L176.65,36.1c8.18-6.6,21.57-6.6,29.75,0l66.14,48.66c8.19,6.61,8.19,17.42,0,24l-28.1,35.12Z"/><path class="cls-2" d="M232.5,48.76,154.22,5c-8.18-6.6-21.57-6.6-29.75,0L46.19,48.76c-8.19,6.6-8.19,17.42,0,24l56.92,71.12h72.46L232.5,72.79C240.68,66.18,240.68,55.36,232.5,48.76Z"/><path class="cls-3" d="M168.88,39.21,162.1,32.8a14.46,14.46,0,0,1-10.8,5c-6.9,0-12-6.65-12-6.65s-5.06,6.65-12,6.65a14.45,14.45,0,0,1-10.79-5l-6.79,6.41a19.63,19.63,0,0,1,5.52,8c1.52,4.71-3.42,24.56-1.34,30.53,3.47,10,12.13,9.78,18.88,12.54a18.5,18.5,0,0,1,6.48,5.08,18.59,18.59,0,0,1,6.49-5.08c6.74-2.76,15.4-2.58,18.88-12.54,2.08-6-2.87-25.82-1.35-30.53A19.74,19.74,0,0,1,168.88,39.21Z"/><path class="cls-4" d="M139.34,88.79a19.26,19.26,0,0,0-4.7-2.84,51.88,51.88,0,0,0-5.37-1.78c-5.74-1.66-9.07-2.84-10.85-8-.75-2.16.26-10.18.86-15,1-7.84,1.5-12.41.52-15.44a21.77,21.77,0,0,0-3.39-6.35l.29-.27a18.07,18.07,0,0,0,22.64-1.33A18.07,18.07,0,0,0,162,39.17l.29.27a21.77,21.77,0,0,0-3.39,6.35c-1,3-.46,7.6.52,15.44.61,4.8,1.62,12.82.86,15-1.78,5.12-5.11,6.3-10.84,8A52,52,0,0,0,144,86,19.65,19.65,0,0,0,139.34,88.79Z"/><path class="cls-5" d="M60.68,126.66C55.15,133.47,52,141.44,52,149.93c0,24.87,27.31,45.21,60.68,45.21H166c33.37,0,60.68-20.34,60.68-45.21,0-8.49-3.19-16.46-8.72-23.27Z"/><path class="cls-6" d="M67.08,126.66c-6.45,6.58-10.27,14.61-10.27,23.27,0,22.26,25,40.36,55.83,40.36H166c30.78,0,55.83-18.1,55.83-40.36,0-8.66-3.82-16.69-10.27-23.27Z"/><path class="cls-7" d="M121,190.29H166a72.6,72.6,0,0,0,27.26-5.16V126.66H121Z"/><path class="cls-8" d="M155.79,190.29H166a76.65,76.65,0,0,0,9.05-.54V126.66h-19.3Z"/><path class="cls-9" d="M226.72,148.8V112.39c-15.51-4.65-48.8-7.87-87.38-7.87S67.47,107.74,52,112.39V148.8c15.51-4.65,48.8-7.87,87.38-7.87S211.21,144.15,226.72,148.8Z"/><path class="cls-5" d="M65.87,145.76c5-.84,10.72-1.59,17-2.23V107.12c-6.27.64-12,1.39-17,2.23Z"/><path class="cls-5" d="M121,141.19q8.92-.25,18.35-.26c20,0,38.54.87,54,2.35v-36.4c-15.42-1.48-34-2.36-54-2.36-6.28,0-12.4.1-18.35.26Z"/><path class="cls-6" d="M155.79,141.14c6.69.16,13.16.42,19.3.77V105.5c-6.14-.35-12.61-.61-19.3-.77Z"/><path class="cls-6" d="M52,112.39v4.54c15.91-4.57,49-7.73,87.38-7.73s71.47,3.16,87.38,7.73v-4.54c-15.51-4.65-48.8-7.87-87.38-7.87S67.47,107.74,52,112.39Z"/><path class="cls-3" d="M227.53,121.94h-.81v18.59h.81c2.67,0,4.86-2.89,4.86-6.42v-5.74C232.39,124.84,230.2,121.94,227.53,121.94Z"/><path class="cls-10" d="M227.14,124a1,1,0,0,0-.42.13v14.21a.86.86,0,0,0,.42.13c1.34,0,2.41-3.23,2.41-7.23S228.48,124,227.14,124Z"/><path class="cls-3" d="M51.15,121.94H52v18.59h-.81c-2.67,0-4.86-2.89-4.86-6.42v-5.74C46.29,124.84,48.48,121.94,51.15,121.94Z"/><path class="cls-10" d="M51.54,124a.94.94,0,0,1,.42.13v14.21a.83.83,0,0,1-.42.13c-1.33,0-2.41-3.23-2.41-7.23S50.21,124,51.54,124Z"/></g></g></svg>