<svg xmlns="http://www.w3.org/2000/svg" viewBox="0 0 313.41 147.03"><defs><style>.cls-1{fill:#051d65;}.cls-2{fill:#020100;}.cls-3{fill:#152c7c;}.cls-4{fill:#fb0709;}.cls-5{fill:#ff9c00;}</style></defs><g id="Capa_2" data-name="Capa 2"><g id="Capa_1-2" data-name="Capa 1"><path class="cls-1" d="M263.7,55.72c-27.25,13.42-82.33,12.46-107,14.39-24.66-1.93-79.74-1-107-14.39C14,38.11-4.35,61.35.88,83.89S52.32,147,151.73,147h10c99.41,0,145.62-40.59,150.85-63.14S299.45,38.11,263.7,55.72Z"/><path class="cls-2" d="M151.73,138.23c-96.67,0-138.18-38.68-142.28-56.32-1.52-6.57-.32-13.15,3.2-17.59,3.12-3.92,7.93-6,13.9-6,5.66,0,12.13,1.79,19.27,5.3C69,75,108.37,76.69,137.15,77.9c7.41.32,13.8.59,18.87,1l.68,0,.69,0c5.06-.4,11.47-.67,18.87-1C205,76.69,244.45,75,267.59,63.62c7.13-3.51,13.61-5.3,19.27-5.3,6,0,10.77,2.08,13.89,6,3.54,4.44,4.73,11,3.2,17.59-4.09,17.64-45.6,56.32-142.27,56.32Z"/><path class="cls-1" d="M161.68,147c99.41,0,145.62-40.59,150.85-63.14a31.33,31.33,0,0,0-1.12-18.47c-8.91,23-55.31,59.6-149.73,59.6h-10C57.32,125,10.92,88.41,2,65.42A31.25,31.25,0,0,0,.88,83.89C6.11,106.44,52.32,147,151.73,147Z"/><path class="cls-3" d="M229.93,101.25,219.19,17.43C217.8,7.83,208.74,0,199.06,0H114.35c-9.68,0-18.74,7.83-20.13,17.43L83.49,101.25Z"/><polygon class="cls-4" points="81.03 94.45 232.38 94.45 228.66 65.42 84.75 65.42 81.03 94.45"/><path class="cls-5" d="M167,56.61H146.44a13.23,13.23,0,0,0-13.22,13.21V90.37a13.22,13.22,0,0,0,13.22,13.2H167a13.21,13.21,0,0,0,13.2-13.2V69.82A13.22,13.22,0,0,0,167,56.61Zm4.4,33.76a4.41,4.41,0,0,1-4.4,4.4H146.44a4.42,4.42,0,0,1-4.41-4.4V69.82a4.42,4.42,0,0,1,4.41-4.4H167a4.41,4.41,0,0,1,4.4,4.4Z"/></g></g></svg>