<svg xmlns="http://www.w3.org/2000/svg" viewBox="0 0 320.68 158.97"><defs><style>.cls-1{fill:#444;}.cls-2{fill:#282828;}.cls-3{fill:#fb0709;}.cls-4{fill:#cecece;}.cls-5{fill:#bfbfbf;}</style></defs><g id="Capa_2" data-name="Capa 2"><g id="Capa_1-2" data-name="Capa 1"><path d="M294,74.2c0,32.17-59.83,69.19-133.63,69.19S26.71,106.37,26.71,74.2,86.54,16,160.34,16,294,42,294,74.2Z"/><path class="cls-1" d="M237.63,111,226.3,19.1C224.84,8.59,215.27,0,205.05,0H115.63C105.4,0,95.84,8.59,94.38,19.1L83,111Z"/><path class="cls-2" d="M237.63,111,226.3,19.1a22.49,22.49,0,0,0-6.74-12.91,25.2,25.2,0,0,0-7.42-.53c-15.3,1.13-28.14,18.5-51.8,18.5s-36.5-17.37-51.81-18.5a25.18,25.18,0,0,0-7.41.53A22.49,22.49,0,0,0,94.38,19.1L83,111Z"/><polygon class="cls-3" points="84.25 101.09 236.43 101.09 232.61 70.24 88.07 70.24 84.25 101.09"/><polygon class="cls-3" points="233.41 76.67 232.61 70.24 88.07 70.24 87.27 76.67 233.41 76.67"/><path class="cls-4" d="M172.66,27.16a12.33,12.33,0,1,0-19.08,10.3V44.8h13.51V37.47A12.34,12.34,0,0,0,172.66,27.16Z"/><path class="cls-2" d="M158.22,26.44a3,3,0,1,1-2.94-3A2.95,2.95,0,0,1,158.22,26.44Z"/><path class="cls-2" d="M168.36,26.44a3,3,0,1,1-3-3A3,3,0,0,1,168.36,26.44Z"/><polygon class="cls-2" points="160.34 34.18 158.22 34.18 159.28 32.35 160.34 30.52 161.4 32.35 162.45 34.18 160.34 34.18"/><rect class="cls-2" x="156.05" y="37.52" width="8.57" height="2.53"/><path class="cls-4" d="M175,48.76a1.83,1.83,0,0,0,.63-2.35,2,2,0,0,0-2.54-1,4.87,4.87,0,0,0-2.4,2.83L148.3,57.59a4.89,4.89,0,0,0-3.7-.26,1.93,1.93,0,0,0-1,2.53,1.83,1.83,0,0,0,2.11,1.2,1.83,1.83,0,0,0-.64,2.35,1.94,1.94,0,0,0,2.54,1A4.87,4.87,0,0,0,150,61.61l22.39-9.39a4.87,4.87,0,0,0,3.69.27,1.93,1.93,0,0,0,1-2.53A1.82,1.82,0,0,0,175,48.76Z"/><path class="cls-5" d="M145.68,48.76a1.83,1.83,0,0,1-.64-2.35,2,2,0,0,1,2.55-1,4.9,4.9,0,0,1,2.4,2.83l22.39,9.38a4.87,4.87,0,0,1,3.69-.26,1.92,1.92,0,0,1,1,2.53,1.84,1.84,0,0,1-2.11,1.2,1.81,1.81,0,0,1,.63,2.35,1.94,1.94,0,0,1-2.54,1,4.85,4.85,0,0,1-2.4-2.82L148.3,52.22a4.89,4.89,0,0,1-3.7.27,2,2,0,0,1-1-2.53A1.83,1.83,0,0,1,145.68,48.76Z"/><path class="cls-2" d="M0,98.63C10.17,66.44,39.23,43.21,73.49,43.21c42.73,0,77.36,36.14,77.36,80.73,0,0-2.12,14.12,9.49,14.12V159s-48.41-10.06-89.07-25.55A447,447,0,0,1,0,98.63Z"/><path class="cls-2" d="M320.68,98.63c-10.18-32.19-39.23-55.42-73.49-55.42-42.73,0-77.38,36.14-77.38,80.73,0,0,2.14,14.12-9.47,14.12V159s48.4-10.06,89.08-25.55A447.09,447.09,0,0,0,320.68,98.63Z"/><path class="cls-1" d="M66.6,52.51c46.11,0,78.85,36.14,78.85,80.73,0,0,2.36,14.11,14.89,14.11v-9.29c-11.61,0-9.49-14.12-9.49-14.12,0-44.59-34.63-80.73-77.36-80.73A75.52,75.52,0,0,0,18.29,67.4,85.06,85.06,0,0,1,66.6,52.51Z"/><path class="cls-1" d="M175.22,133.24c0-44.59,32.74-80.73,78.86-80.73A85.09,85.09,0,0,1,302.4,67.4a75.57,75.57,0,0,0-55.21-24.19c-42.73,0-77.38,36.14-77.38,80.73,0,0,2.14,14.12-9.47,14.12v9.29C172.87,147.35,175.22,133.24,175.22,133.24Z"/><path d="M3,90.58a82.68,82.68,0,0,0-3,8,447,447,0,0,0,71.27,34.79C111.93,148.91,160.34,159,160.34,159v-4.64s-52.26-14.72-96.15-30.22C38.67,115.11,16.84,100.9,3,90.58Z"/><path d="M256.49,124.11c-43.89,15.5-96.15,30.22-96.15,30.22V159s48.4-10.06,89.08-25.55a447.09,447.09,0,0,0,71.26-34.79,85.35,85.35,0,0,0-3-8C303.83,100.9,282,115.11,256.49,124.11Z"/></g></g></svg>