<svg xmlns="http://www.w3.org/2000/svg" viewBox="0 0 724.53 353.91"><g id="Capa_2" data-name="Capa 2"><g id="Capa_1-2" data-name="Capa 1"><path d="M129.42,48.08a15,15,0,0,1-.38,2.26q-4.89,28.74-4.89,49.58,0,1.26,3.13,56.36l.13,1.76c.08,2.42-1,3.64-3.33,3.64a99.28,99.28,0,0,0-10.42.81,96.76,96.76,0,0,1-10.35.82q-2.39,0-3.64-8.79c-.84-5.85-1.63-8.78-2.39-8.78q-.75,0-6.78,4.89a73.73,73.73,0,0,1-13.8,9.16,43.59,43.59,0,0,1-19.84,5q-24.34,0-41-19.45A64.75,64.75,0,0,1,0,102.05Q0,74.18,15.94,56,32.64,37,59.88,37A47.64,47.64,0,0,1,93.39,50.34q2.13,2.5,6.65,7.28a1.09,1.09,0,0,0,.76.37c.5,0,1.21-2.63,2.13-7.91s2.09-7.9,3.52-7.9q3.39,0,12.67,1.88Q129.41,46.33,129.42,48.08Zm-32,52.47q0-15.45-9.17-26.49Q78.58,62.14,63.52,62.13T38.41,73.93a39.69,39.69,0,0,0-9.66,26.62,39,39,0,0,0,9.66,26.36q10,11.67,25.11,11.67,14.68,0,24.6-11.92A39.61,39.61,0,0,0,97.41,100.55Z"/><path d="M258.21,78.58q0,17.7-1.13,20.59-1.89,5.64-20.34,33-19,28-22.59,29.5c-1.18.5-4.69.75-10.55.75-5.6,0-9.29-.25-11-.75q-3.52-1.14-23-28.37-19-26.49-21.22-32.26-3-7.9-3-24.48,0-5.14.25-15.44t.25-15.44a2.44,2.44,0,0,1,2.76-2.76q4.14,0,12.37.38t12.36.37c1.51,0,2.26.84,2.26,2.51q0,4-.5,11.87t-.5,11.86A161.94,161.94,0,0,0,175.86,91q.63,4.77,12.74,23.34t15,18.58q2.76,0,13.69-18.2,10.78-17.82,11.54-22.47,1-6.27,1-21.59,0-4.14-.82-12.43t-.81-12.42a1.66,1.66,0,0,1,1.88-1.89q4.14,0,12.17-.44t12.05-.44Q258.21,43.05,258.21,78.58Z"/><path d="M401.93,48.08a14.5,14.5,0,0,1-.37,2.26q-4.9,28.74-4.9,49.58,0,1.26,3.14,56.36l.12,1.76c.09,2.42-1,3.64-3.32,3.64a99.09,99.09,0,0,0-10.42.81,96.9,96.9,0,0,1-10.36.82q-2.38,0-3.64-8.79c-.83-5.85-1.63-8.78-2.38-8.78q-.75,0-6.78,4.89a73.78,73.78,0,0,1-13.81,9.16,43.52,43.52,0,0,1-19.83,5q-24.36,0-41.05-19.45a64.79,64.79,0,0,1-15.81-43.31q0-27.87,15.94-46.07Q305.15,37,332.39,37a47.65,47.65,0,0,1,33.52,13.31q2.13,2.5,6.65,7.28a1.07,1.07,0,0,0,.75.37c.51,0,1.22-2.63,2.14-7.91s2.09-7.9,3.51-7.9q3.39,0,12.68,1.88Q401.93,46.33,401.93,48.08Zm-32,52.47q0-15.45-9.16-26.49Q351.1,62.14,336,62.13t-25.1,11.8a39.64,39.64,0,0,0-9.67,26.62,39,39,0,0,0,9.67,26.36q10,11.67,25.1,11.67,14.69,0,24.61-11.92A39.6,39.6,0,0,0,369.92,100.55Z"/><path d="M492.31,138.58q0,2.76-.5,7.53-.63,5.91-.75,7.66a9.78,9.78,0,0,1-.38,2.76,5.3,5.3,0,0,1-2.39,1.76q-10.29,4.89-32.38,4.89-29.37,0-29.37-26.61,0-10.66.5-32.07t.5-32.07q0-5.15-5.15-5.52c-3.09,0-6.15,0-9.16-.13q-2.64-.63-2.64-10.29a60.91,60.91,0,0,1,.51-7.66q.38-3,4-3.64c2.09,0,4.15,0,6.15-.13,3.85-.16,5.78-1.88,5.78-5.14s-.11-8.45-.32-15.32-.31-12-.31-15.44q0-9.15,3.52-9.16,1.13,0,23.59,3.89c1.93.25,2.89,1.17,2.89,2.76q0,5.53-.81,16.57t-.82,16.57q0,3.65,3.39,3.64h30.12c1.43,0,2.14.5,2.14,1.51a42.43,42.43,0,0,1-.44,4.83,42.45,42.45,0,0,0-.44,5c0,1.25,0,3.18.13,5.77s.12,4.52.12,5.78c0,1.59-1.17,2.38-3.51,2.38q-5,0-15.19-.69t-15.19-.69q-1,0-1.51,7.16-.63,8.91-.62,25v18.7q0,10.8,2,15.06,3,6.52,12.43,6.53A57.56,57.56,0,0,0,479.63,138a56.79,56.79,0,0,1,11.18-1.7C491.81,136.32,492.31,137.07,492.31,138.58Z"/><path d="M632.27,48.08a14.5,14.5,0,0,1-.37,2.26Q627,79.08,627,99.92q0,1.26,3.14,56.36l.12,1.76c.09,2.42-1,3.64-3.32,3.64a99.09,99.09,0,0,0-10.42.81,96.9,96.9,0,0,1-10.36.82q-2.38,0-3.64-8.79c-.83-5.85-1.63-8.78-2.38-8.78q-.75,0-6.78,4.89a73.78,73.78,0,0,1-13.81,9.16,43.52,43.52,0,0,1-19.83,5q-24.36,0-41.05-19.45a64.79,64.79,0,0,1-15.81-43.31q0-27.87,15.94-46.07Q535.49,37,562.73,37a47.65,47.65,0,0,1,33.52,13.31q2.13,2.5,6.65,7.28a1.07,1.07,0,0,0,.75.37c.51,0,1.22-2.63,2.14-7.91s2.09-7.9,3.51-7.9q3.39,0,12.68,1.88Q632.27,46.33,632.27,48.08Zm-32,52.47q0-15.45-9.16-26.49-9.66-11.93-24.73-11.93t-25.1,11.8a39.64,39.64,0,0,0-9.67,26.62,39,39,0,0,0,9.67,26.36q10,11.67,25.1,11.67,14.68,0,24.61-11.92A39.6,39.6,0,0,0,600.26,100.55Z"/><path d="M724.53,43.81a152.82,152.82,0,0,1-1.88,25.1c-.25,1.93-1.09,2.89-2.51,2.89-1.76,0-4.41-.19-8-.56s-6.26-.57-8.1-.57q-15.81,0-20.21,8.91-2.62,5.4-2.63,22.47v13.81q0,7,.56,21.34t.57,21.34c0,2.26-1,3.39-2.89,3.39-2.59,0-6.53-.05-11.8-.13s-9.21-.12-11.8-.12c-1.92,0-2.89-1.05-2.89-3.14q0-10.17.32-30.63t.31-30.75q0-31-5.77-49.84a6.7,6.7,0,0,1-.25-1.5,2.19,2.19,0,0,1,1.63-2.14c3.09-.33,7.45-.83,13-1.5q13.56-2.52,12.56-2.51c1.33,0,2.21,2.46,2.63,7.4s1.17,7.41,2.26,7.41a1.19,1.19,0,0,0,.63-.25l10.29-6.53a46.7,46.7,0,0,1,11.55-5,43.35,43.35,0,0,1,12.55-1.51Q724.54,41.17,724.53,43.81Z"/><path d="M66.15,312.11q0,18.7-14.93,30-13.56,10.31-33,10.3c-5,0-7.87-.13-8.53-.38q-2.14-1-2.14-6.15a73.52,73.52,0,0,0-.69-8.29,73,73,0,0,1-.69-8.16c0-1.08.75-1.79,2.26-2.13a14.2,14.2,0,0,1,4.65,0c2.59.25,3.84.38,3.76.38q23.73,0,23.73-14.56,0-6.92-10.42-12.68-17-9.29-19.46-11.43Q.25,280.1.25,265.67q0-18.84,14.19-29.38,12.8-9.4,32.38-9.41a2.71,2.71,0,0,1,2.58,1.63,86.77,86.77,0,0,1,3.13,10.17q2.32,8.53,2.33,10.29c0,.92-.8,1.51-2.39,1.76q-8,1.13-16.19,2.13-9.68,2.64-9.67,10.55,0,5.64,10.17,11.42Q51.84,283.25,55.86,287,66.15,296.79,66.15,312.11Z"/><path d="M154.15,327.68q0,2.76-.5,7.53c-.42,3.93-.67,6.49-.76,7.66a10.08,10.08,0,0,1-.37,2.76,5.3,5.3,0,0,1-2.39,1.75q-10.29,4.9-32.38,4.9-29.39,0-29.38-26.61,0-10.67.5-32.07t.51-32.08q0-5.14-5.15-5.52-4.65,0-9.16-.12-2.64-.63-2.64-10.3a62.61,62.61,0,0,1,.5-7.65q.38-3,4-3.64c2.09,0,4.14,0,6.15-.13,3.85-.17,5.77-1.88,5.77-5.15s-.1-8.45-.31-15.31-.31-12-.31-15.44q0-9.16,3.51-9.17,1.13,0,23.6,3.9c1.92.25,2.89,1.17,2.89,2.76q0,5.52-.82,16.57t-.81,16.57q0,3.65,3.38,3.64h30.13c1.42,0,2.14.5,2.14,1.5a42.37,42.37,0,0,1-.44,4.84,40.17,40.17,0,0,0-.44,5c0,1.25,0,3.18.12,5.77s.13,4.52.13,5.77c0,1.59-1.18,2.39-3.52,2.39q-5,0-15.19-.69c-6.77-.46-11.84-.69-15.18-.69q-1,0-1.51,7.15-.63,8.93-.63,25v18.71q0,10.8,2,15.06,3,6.53,12.43,6.53a57,57,0,0,0,11.42-1.7,56.52,56.52,0,0,1,11.17-1.69C153.65,325.42,154.15,326.17,154.15,327.68Z"/><path d="M288.34,236.92q0,9.17-.76,27.68t-.75,27.8q0,9.17.57,27.43t.56,27.43a3.13,3.13,0,0,1-2.39,3.26q-1,.25-25.48.25c-1,0-1.61-3.13-1.82-9.41s-.69-9.41-1.44-9.41a3.5,3.5,0,0,0-1.88,1.13q-21,18.19-41.43,18.2-27.74,0-36.65-20.09-5.52-12.42-5.52-44.69,0-29.12,4.64-49.33,1.13-4.89,4.14-4.89,3.65,0,10.92.12t10.92.13c1.68,0,2.51.92,2.51,2.76a132.11,132.11,0,0,1-1.63,16.32A169,169,0,0,0,201,268.8q-.37,7.54-.38,16.58,0,22,3.14,29.49,5.4,13.56,24,13.56,7.9,0,18.7-7.78,11.42-8.16,11.8-15.69.63-9.42.63-66.28,0-6.15,5.14-6.15H284.7C287.12,232.53,288.34,234,288.34,236.92Z"/><path d="M434.58,175.66q0,16.2-1.45,48.52t-1.44,48.39q0,49.59,2.13,75.07l.13,1.63c.08.84-1.05,1.38-3.39,1.63a44.14,44.14,0,0,1-6.78,0c-3.51-.25-5.15-.38-4.9-.38-1.25,0-3.09.13-5.52.38s-4.27.38-5.52.38-1.86-2.91-2.07-8.73-.53-8.76-.94-8.85a7.36,7.36,0,0,0-1.89,1.63q-17.19,18.59-39.54,18.58-25.35,0-41.67-19.33-15.45-18.19-15.44-43.93,0-26.75,15.56-44.94,16.32-19.08,42.56-19.08A43.3,43.3,0,0,1,392,235.92q5.4,4.64,10.67,9.41a1.65,1.65,0,0,0,1-1.76V202.9q0-4.14-.38-12.55t-.38-12.68c0-2,.67-3,2-3q4.65,0,13.81-.82t13.68-.81C433.86,173,434.58,173.91,434.58,175.66ZM403.19,289.89a40.69,40.69,0,0,0-9.29-26.48q-9.91-12.18-24.6-12.18-15.44,0-25.48,12-9.54,11.3-9.54,27.12a38.21,38.21,0,0,0,9.92,26.23q10.16,11.81,25.1,11.8t24.86-11.92Q403.19,305.34,403.19,289.89Z"/><path d="M489.56,200.64q0,15.45-17.2,15.44-17.44,0-17.45-15.44a14.26,14.26,0,0,1,5.4-11.42,19,19,0,0,1,24.16.13A14.24,14.24,0,0,1,489.56,200.64Zm-.88,34q0,9.68-1.19,29.19t-1.2,29.31q0,9.16.38,27.42t.38,27.31c0,1.75-.76,2.63-2.26,2.63H460.31q-2.64,0-2.64-5.14,0-8.67.44-26.05t.44-26.17q0-9.8-1.44-29.38t-1.45-29.37q0-2.13,2.64-2.13a59.93,59.93,0,0,1,7,.62,40.21,40.21,0,0,0,14.18,0,60.1,60.1,0,0,1,7.09-.62C488,232.28,488.68,233.07,488.68,234.66Z"/><path d="M627.26,289.64q0,26.24-17.2,44.82-17.56,19.2-43.56,19.2t-43.68-19.08q-17.21-18.45-17.2-44.69t17.2-44.68q17.7-18.84,43.68-18.83t43.44,18.83Q627.27,263.53,627.26,289.64Zm-26.49.25q0-15.31-9.41-26.11a31.33,31.33,0,0,0-24.86-11.42,31.83,31.83,0,0,0-25,11.3q-9.4,10.92-9.41,26.23A38.64,38.64,0,0,0,541.65,316q10,11.69,24.85,11.68T591.36,316A38.92,38.92,0,0,0,600.77,289.89Z"/></g></g></svg>